<?xml version="1.0" standalone="no"?>
<!DOCTYPE svg PUBLIC "-//W3C//DTD SVG 20010904//EN"
 "http://www.w3.org/TR/2001/REC-SVG-20010904/DTD/svg10.dtd">
<svg version="1.0" xmlns="http://www.w3.org/2000/svg"
 width="710.000000pt" height="640.000000pt" viewBox="0 0 710.000000 640.000000"
 preserveAspectRatio="xMidYMid meet">

<g transform="translate(0.000000,640.000000) scale(0.100000,-0.100000)"
fill="#000000" stroke="none">
<path d="M0 4669 l0 -1732 47 6 c46 5 79 29 67 49 -3 5 -20 8 -37 6 -23 -2
-33 1 -35 14 -4 22 36 44 51 29 6 -6 20 -11 31 -11 29 -1 49 -19 61 -55 8 -24
17 -31 43 -33 26 -3 32 -8 32 -27 0 -18 -8 -26 -36 -35 -19 -7 -43 -13 -52
-14 -11 -2 -18 -14 -20 -34 -3 -31 -4 -31 -50 -28 -74 5 -102 -3 -102 -29 0
-18 6 -22 30 -23 34 -1 90 -22 90 -34 0 -5 14 -8 30 -8 20 0 30 5 30 15 0 8 5
15 10 15 6 0 10 -12 10 -27 0 -16 5 -35 10 -43 8 -12 12 -11 30 8 26 28 28 28
22 -3 -3 -19 4 -33 30 -58 20 -19 32 -39 30 -50 -3 -14 -7 -16 -18 -6 -7 6
-20 9 -28 6 -7 -3 -26 1 -41 9 -17 9 -41 12 -66 8 l-39 -7 3 39 c2 33 -1 39
-18 39 -11 1 -25 3 -30 6 -6 3 -26 5 -45 4 -34 -2 -35 -3 -38 -48 -2 -36 0
-47 11 -47 8 0 17 -7 21 -15 3 -8 13 -15 23 -15 25 0 83 -37 83 -53 0 -7 -9
-31 -20 -53 l-19 -39 -2 30 c-2 26 -3 25 -8 -10 -6 -38 -8 -40 -44 -41 -40 -1
-52 -7 -43 -22 6 -10 97 -23 179 -25 26 -1 51 -7 55 -14 8 -13 88 -34 97 -25
3 3 5 -3 5 -13 0 -14 3 -15 15 -5 8 7 15 19 15 27 0 11 10 14 38 12 27 -2 36
1 34 11 -2 7 3 17 10 21 7 4 9 11 5 15 -3 4 -14 1 -22 -6 -21 -18 -63 -19 -77
-3 -6 7 -19 13 -29 13 -28 0 -33 20 -11 40 11 10 22 25 25 32 3 10 9 9 25 -5
15 -14 25 -16 39 -9 23 13 66 -11 84 -47 24 -49 26 -50 69 -37 73 21 95 74 26
61 -27 -6 -32 -3 -33 14 -1 12 1 21 5 21 4 0 22 13 40 30 28 25 36 28 52 18
22 -14 50 3 50 31 1 17 27 57 34 50 2 -2 9 -14 15 -27 l12 -22 39 20 c21 11
41 29 45 40 6 18 35 27 69 21 5 -1 17 5 26 14 10 9 24 17 32 19 7 1 28 12 47
25 26 19 37 21 54 13 12 -6 41 -14 65 -17 25 -4 42 -12 42 -20 0 -22 22 -29
35 -11 8 10 19 14 29 10 24 -9 66 15 59 33 -3 8 -12 12 -20 9 -8 -3 -33 9 -56
27 -51 39 -59 50 -45 58 17 11 49 -2 46 -19 -2 -8 3 -17 10 -19 6 -3 12 3 12
12 0 13 6 16 25 11 20 -5 25 -3 25 14 0 26 20 26 27 0 6 -24 21 -26 29 -5 8
19 24 20 24 1 0 -21 19 -30 34 -17 10 9 15 7 19 -8 3 -12 16 -22 33 -26 81
-16 131 -29 148 -38 19 -9 19 -10 -3 -26 -22 -17 -22 -17 -3 -34 15 -14 36
-17 88 -16 125 2 148 1 289 -5 77 -4 151 -6 165 -5 14 1 36 1 50 1 14 -1 41
-2 61 -2 29 -1 38 -6 43 -23 9 -33 7 -44 -4 -27 -8 12 -13 13 -30 3 -11 -7
-27 -13 -35 -13 -26 0 -64 -48 -57 -73 3 -12 10 -25 16 -29 8 -5 7 -8 -1 -8
-18 0 -16 -18 2 -36 15 -16 67 -12 90 6 6 5 21 8 35 8 14 0 60 1 103 3 64 3
77 6 77 20 0 19 60 32 98 23 30 -9 28 -31 -8 -61 -17 -13 -30 -30 -30 -37 0
-16 -42 -63 -83 -93 -24 -18 -38 -20 -82 -16 -47 5 -55 3 -67 -16 -14 -23 -30
-29 -22 -8 7 19 -70 51 -93 39 -11 -7 -31 -6 -61 3 -24 8 -58 11 -76 8 -22 -3
-36 0 -45 11 -10 12 -31 16 -77 16 -34 0 -66 4 -69 10 -9 15 -28 12 -22 -4 3
-8 -3 -22 -14 -32 -10 -9 -18 -24 -17 -33 3 -13 -11 -16 -80 -19 -46 -1 -92
-7 -103 -13 -14 -7 -28 -6 -54 7 -26 12 -45 14 -77 8 -24 -5 -50 -9 -58 -10
-8 0 -17 -2 -20 -3 -3 -2 -42 -4 -87 -6 -60 -1 -86 2 -94 11 -6 8 -29 14 -50
14 -39 0 -47 -7 -30 -25 15 -16 21 -67 10 -81 -6 -8 -24 -11 -45 -9 -19 3 -34
0 -34 -5 0 -14 -28 -12 -32 2 -3 7 -11 -1 -19 -17 -8 -16 -25 -35 -37 -41 -59
-29 -45 -36 97 -47 19 -1 36 -7 38 -14 3 -8 -8 -10 -36 -6 -27 4 -41 2 -41 -6
0 -6 11 -11 24 -11 13 0 32 -3 41 -6 11 -5 18 0 22 15 6 25 11 26 33 6 12 -11
14 -26 10 -65 l-5 -52 -70 -4 c-38 -3 -71 -9 -73 -14 -3 -9 -50 15 -65 35 -6
7 -10 6 -14 -2 -3 -9 -19 -11 -46 -8 -30 3 -34 2 -13 -3 38 -9 39 -26 4 -30
-45 -5 -32 -17 20 -19 26 -1 58 -2 71 -2 16 -1 21 -6 18 -16 -6 -15 -3 -15 88
-13 67 1 79 0 100 -5 11 -3 32 -6 47 -6 17 -1 29 -8 33 -21 7 -22 31 -27 38
-7 3 7 9 1 17 -14 11 -25 15 -26 53 -17 23 5 44 14 48 20 5 7 16 7 35 1 31
-10 45 -33 20 -33 -18 0 -21 -11 -5 -27 7 -7 1 -14 -20 -23 -18 -7 -31 -20
-31 -30 0 -10 -5 -20 -11 -22 -6 -2 -12 -19 -13 -38 -2 -42 -30 -51 -70 -24
-31 20 -33 34 -6 34 11 0 20 5 20 10 0 6 7 10 16 10 20 0 13 24 -9 28 -10 2
-17 -3 -17 -12 0 -9 -7 -16 -15 -16 -11 0 -14 7 -9 24 5 20 1 24 -27 30 -17 3
-47 6 -65 6 -19 0 -34 5 -34 10 0 6 -11 10 -25 10 -15 0 -25 6 -25 14 0 26
-26 39 -49 24 -16 -10 -25 -10 -40 -1 -16 10 -20 9 -24 -7 -5 -18 -15 -19
-150 -16 -79 2 -150 6 -156 10 -6 4 -11 16 -11 27 0 19 -11 25 -23 13 -3 -3
-29 -7 -57 -9 -30 -3 -60 -11 -71 -21 -10 -9 -25 -14 -34 -10 -9 3 -25 2 -35
-4 -13 -7 -24 -5 -41 9 -13 10 -33 20 -45 23 -24 6 -57 -9 -49 -22 3 -5 -4
-14 -15 -20 -11 -6 -20 -17 -20 -25 0 -8 -4 -15 -9 -15 -4 0 -6 -12 -3 -26 5
-25 3 -26 -24 -20 -27 6 -27 5 -11 -8 25 -19 19 -61 -8 -61 -14 0 -19 6 -17
18 2 9 -2 17 -8 17 -5 0 -10 -5 -10 -11 0 -7 -9 -9 -22 -5 -22 7 -48 12 -75
15 -7 0 -13 8 -13 16 0 15 -10 19 -97 33 l-53 9 0 -98 c0 -87 2 -99 18 -100 9
-1 22 0 27 1 6 2 19 4 31 5 21 1 76 35 59 35 -6 0 -3 5 6 10 9 5 37 6 67 1 41
-6 52 -5 52 5 0 19 44 18 60 -1 19 -22 46 -18 64 10 20 30 36 32 36 6 0 -18 7
-20 88 -19 92 1 142 -8 154 -26 8 -11 8 -10 12 26 0 7 16 15 33 19 27 5 34 3
39 -13 4 -13 12 -18 23 -15 10 2 26 -2 36 -9 22 -16 69 -19 60 -4 -3 5 3 10
14 10 12 0 21 -7 21 -15 0 -8 5 -15 10 -15 6 0 10 -7 10 -15 0 -24 29 -29 50
-10 19 17 21 17 38 2 10 -10 26 -17 35 -17 9 0 17 -5 17 -12 0 -7 6 -5 18 4
14 13 38 15 127 11 60 -2 111 -6 114 -8 2 -3 10 3 16 12 12 16 14 16 39 -1 18
-11 37 -15 56 -11 16 3 31 2 35 -4 8 -15 89 -51 112 -51 10 0 25 -4 33 -10 9
-5 17 -5 20 0 6 10 105 -5 145 -21 79 -31 97 -34 110 -16 14 19 70 23 125 7
23 -7 36 -7 38 0 5 15 39 12 46 -5 4 -11 16 -13 50 -9 28 4 51 2 59 -5 11 -8
18 -7 31 8 19 21 13 69 -11 78 -10 4 -12 13 -8 27 10 35 13 116 4 116 -5 0 3
16 16 36 14 20 25 47 25 58 0 12 7 31 15 42 8 10 15 27 15 37 0 10 6 17 13 16
21 -4 61 18 87 46 14 15 44 36 67 47 23 10 61 37 84 59 31 30 49 40 66 36 12
-2 28 2 34 9 6 8 30 14 54 14 24 0 45 4 47 10 2 5 18 10 36 12 36 3 59 31 81
99 7 20 20 39 30 42 18 4 57 100 68 164 3 18 11 38 19 44 8 6 14 26 14 44 0
18 10 45 23 61 16 21 22 42 22 79 1 27 8 67 18 89 9 21 17 45 17 54 0 9 5 30
11 47 13 35 -4 110 -41 190 -27 57 -34 126 -16 150 9 11 16 32 16 47 0 20 -7
28 -31 37 -26 9 -30 15 -26 33 4 15 -1 30 -14 44 -11 12 -21 37 -22 57 -1 19
-10 44 -20 55 -23 25 -22 39 8 74 14 16 25 39 25 52 0 12 7 32 16 44 11 16 14
35 10 65 -3 23 -3 36 0 29 9 -19 23 -4 17 18 -4 15 -9 18 -18 10 -23 -19 -51
45 -54 124 -1 22 -4 43 -7 47 -2 4 3 25 11 46 16 39 60 84 128 128 39 26 155
55 217 55 42 0 60 15 60 47 0 18 -6 23 -24 23 -13 0 -29 7 -36 15 -11 13 -7
15 23 15 22 0 37 6 41 15 3 8 12 15 21 15 8 0 15 6 15 13 0 20 37 92 54 106
24 20 59 -4 49 -32 -4 -12 -7 -57 -5 -100 3 -87 -4 -104 -59 -161 -30 -31 -38
-49 -44 -92 -5 -45 -3 -57 13 -74 l19 -21 59 28 c68 32 93 67 68 94 -9 10 -16
23 -18 31 -1 7 -5 19 -9 26 -22 34 26 42 75 12 18 -11 47 -20 64 -20 18 0 45
-6 61 -12 41 -18 133 -89 133 -104 0 -6 9 -23 20 -37 25 -32 25 -53 1 -108
-18 -39 -26 -47 -73 -63 -45 -15 -61 -16 -97 -6 -33 9 -46 8 -57 -1 -11 -9
-21 -9 -37 -2 -45 21 -82 37 -89 37 -4 1 -15 11 -23 24 -9 12 -25 22 -35 22
-10 0 -23 7 -28 16 -13 24 -154 24 -180 1 -10 -10 -21 -14 -25 -11 -3 4 -11
-5 -18 -18 -6 -14 -27 -33 -46 -42 l-35 -17 6 -57 c4 -31 11 -88 15 -127 4
-38 15 -83 24 -100 9 -16 21 -43 27 -58 5 -16 19 -31 31 -34 14 -4 19 -12 17
-28 -3 -26 51 -145 66 -145 17 0 45 -32 39 -46 -5 -13 19 -20 55 -15 21 3 42
-19 42 -45 0 -15 6 -24 15 -24 10 0 15 -7 13 -17 -2 -14 5 -19 30 -21 32 -3
45 -26 19 -35 -9 -3 -8 -9 4 -23 9 -10 19 -26 22 -36 5 -13 16 -15 59 -12 29
3 84 5 122 5 42 1 63 4 55 9 -10 7 -9 10 6 15 11 4 29 11 40 17 12 5 35 10 53
10 18 1 32 6 31 12 -4 32 3 46 26 52 14 3 25 10 25 15 0 4 8 16 19 26 10 10
21 30 25 45 3 15 15 30 26 33 23 7 25 34 7 87 l-13 38 -20 -26 c-13 -18 -30
-26 -55 -27 -20 -1 -43 -8 -50 -14 -8 -6 -30 -10 -49 -8 -33 3 -35 5 -33 35 2
42 17 58 38 40 15 -12 16 -11 13 5 -2 13 5 21 22 25 14 4 24 13 22 20 -2 7 1
16 5 19 17 13 34 51 22 51 -7 0 0 11 15 25 14 13 26 31 26 38 0 16 27 30 41
21 5 -3 9 -12 9 -20 0 -8 6 -14 14 -14 8 0 32 -16 53 -35 21 -19 46 -38 57
-41 15 -5 17 -13 13 -44 -5 -36 -3 -38 25 -44 17 -3 49 -6 72 -6 35 0 46 -5
65 -30 l22 -31 -23 -19 c-13 -11 -26 -19 -30 -20 -5 0 -8 -9 -8 -20 0 -24 32
-44 47 -29 11 11 53 -8 53 -23 0 -5 7 -8 15 -8 8 0 15 -7 15 -16 0 -10 -6 -14
-14 -11 -9 4 -12 0 -9 -12 3 -10 12 -18 20 -17 10 1 17 -8 18 -22 2 -24 20
-42 41 -42 19 0 3 -48 -21 -64 -17 -11 -25 -29 -30 -66 -4 -27 -11 -50 -16
-50 -5 0 -7 -11 -3 -24 4 -16 1 -25 -11 -30 -11 -4 -15 -12 -11 -22 8 -21 -4
-40 -15 -23 -7 11 -11 11 -21 1 -10 -10 -8 -14 10 -19 l23 -6 -21 -22 c-12
-12 -18 -29 -15 -37 4 -9 2 -19 -4 -23 -16 -10 -13 -35 4 -35 18 0 42 -46 31
-58 -5 -4 -15 3 -23 15 -19 29 -49 30 -56 2 -4 -15 1 -23 21 -30 15 -6 34 -17
44 -25 14 -14 17 -14 26 1 7 14 13 15 31 6 24 -13 28 -31 6 -31 -8 0 -15 -4
-15 -10 0 -5 5 -10 10 -10 6 0 10 -6 10 -14 0 -23 20 -29 39 -12 10 9 23 16
29 16 6 0 17 12 24 28 16 34 54 42 63 13 9 -30 35 -26 35 5 0 15 5 24 12 22
20 -7 19 -23 -2 -48 -11 -13 -20 -31 -20 -42 0 -12 -7 -18 -21 -18 -18 0 -20
-4 -15 -28 15 -57 15 -92 1 -119 -8 -15 -15 -38 -15 -51 0 -13 -12 -34 -27
-48 -26 -24 -27 -27 -10 -38 21 -16 22 -36 2 -36 -8 0 -15 -6 -15 -14 0 -7 -9
-25 -21 -40 -14 -18 -19 -34 -15 -51 4 -16 -1 -38 -14 -62 -11 -21 -20 -43
-20 -49 0 -6 -14 -23 -31 -38 -23 -20 -28 -31 -20 -39 6 -6 11 -22 11 -36 0
-15 7 -34 14 -44 14 -18 10 -63 -5 -73 -5 -3 -9 -23 -9 -44 0 -38 1 -39 45
-46 40 -6 292 9 385 22 100 14 132 16 126 5 -4 -6 -3 -18 2 -27 6 -11 11 -13
16 -5 4 6 21 11 38 11 23 0 29 4 24 15 -3 10 1 15 12 15 9 0 29 7 44 14 16 9
30 11 33 5 11 -17 25 -9 25 15 0 13 7 27 16 30 24 9 26 8 13 -15 -9 -18 -7
-25 10 -42 12 -12 21 -16 21 -9 0 7 7 12 15 12 8 0 15 7 15 15 0 8 -7 15 -15
15 -18 0 -18 1 -5 34 6 16 17 26 29 26 16 0 21 -9 27 -47 5 -32 3 -48 -5 -51
-6 -2 -11 -9 -11 -17 0 -17 49 -25 94 -15 29 6 48 4 82 -11 45 -19 99 -19 212
-3 36 5 47 3 63 -15 l20 -21 52 20 c63 24 107 26 107 5 0 -8 9 -15 20 -15 11
0 20 -7 20 -15 0 -20 6 -19 40 5 15 11 30 17 34 13 3 -3 6 -1 6 5 0 7 -8 12
-17 12 -16 1 -16 2 1 15 12 9 42 15 78 15 51 0 58 -2 58 -20 0 -11 7 -20 15
-20 18 0 19 12 3 28 -9 9 -9 15 0 24 7 7 12 9 12 6 0 -4 12 0 28 7 16 9 28 11
30 5 5 -13 32 -13 32 0 0 6 18 10 40 10 38 0 54 -13 28 -23 -21 -7 -4 -17 19
-11 12 4 23 16 25 28 2 14 11 22 28 24 22 4 23 2 10 -13 -12 -15 -12 -19 5
-31 22 -16 45 -18 45 -4 0 14 27 13 36 -2 4 -6 2 -14 -4 -16 -8 -2 -8 -8 2
-18 8 -8 17 -14 20 -14 11 0 6 36 -6 48 -9 9 -9 12 3 12 12 0 12 2 -1 10 -11
7 -2 8 28 4 30 -5 42 -3 42 6 0 16 -122 9 -128 -8 -2 -7 -11 -12 -20 -12 -13
0 -14 2 -4 9 7 4 12 14 10 22 -4 20 64 24 131 8 53 -13 54 -12 77 14 26 30 34
33 34 13 0 -22 59 -26 65 -5 4 12 15 16 35 15 16 -1 27 2 24 6 -3 4 0 8 5 8 6
0 11 -11 11 -25 0 -27 17 -34 26 -10 4 8 14 15 24 15 11 0 22 5 25 10 4 6 12
7 18 3 19 -14 88 -35 94 -30 8 9 -7 28 -18 22 -5 -4 -9 -1 -9 4 0 6 9 11 19
11 23 0 35 39 21 74 -5 14 -8 26 -7 27 1 1 17 2 35 4 31 3 45 -16 22 -30 -16
-10 -12 -55 4 -55 23 0 28 16 10 31 -14 12 -14 14 5 21 l21 7 0 1906 c0 1263
-3 1905 -10 1905 -5 0 -10 7 -10 15 0 8 5 15 10 15 6 0 10 8 10 18 -1 16 -1
16 -14 0 -16 -22 -32 -23 -40 -3 -3 8 -14 15 -25 15 -23 0 -41 22 -23 28 7 2
12 14 12 27 0 30 30 48 65 39 24 -6 25 -5 25 45 0 28 -4 51 -10 51 -5 0 -10 7
-10 15 0 8 5 15 10 15 6 0 10 79 10 216 0 191 -2 215 -15 204 -8 -7 -15 -21
-15 -31 0 -11 -4 -19 -10 -19 -5 0 -10 -5 -10 -10 0 -6 5 -9 11 -8 6 2 14 -3
16 -11 4 -10 0 -11 -17 -6 -15 5 -20 3 -16 -3 3 -6 -3 -13 -14 -17 -24 -8 -63
3 -55 15 3 5 -11 4 -31 -2 -23 -6 -40 -6 -46 0 -6 6 0 12 16 16 14 3 26 11 26
16 0 6 7 10 15 10 8 0 15 7 15 16 0 14 -3 14 -15 4 -26 -22 -30 -2 -7 41 12
23 22 45 22 50 0 18 -70 9 -87 -11 -20 -23 -53 -27 -53 -6 0 7 6 19 14 25 13
11 29 51 21 51 -2 0 -17 -14 -33 -31 -22 -24 -34 -30 -51 -24 -11 3 -21 13
-21 20 0 11 6 12 25 5 23 -9 25 -7 25 20 0 27 2 29 40 28 27 0 40 -5 40 -14 0
-10 13 -14 40 -14 30 0 40 -4 40 -16 0 -12 5 -14 18 -9 9 4 29 10 45 13 22 3
26 1 21 -12 -3 -9 -1 -16 5 -16 6 0 11 -9 11 -21 0 -11 4 -17 10 -14 5 3 7 19
4 34 -4 16 -1 32 5 35 16 10 15 163 -1 169 -10 4 -10 7 0 18 6 7 12 26 12 41
l0 28 -237 -2 c-131 0 -223 -3 -205 -5 30 -4 32 -7 32 -44 l0 -40 -47 3 c-46
3 -48 4 -56 41 l-9 38 -24 -26 c-17 -19 -24 -22 -24 -11 0 9 -7 16 -15 16 -8
0 -12 -6 -9 -14 3 -8 1 -17 -5 -21 -7 -4 -11 3 -11 17 0 18 -2 20 -10 8 -5 -8
-7 -24 -4 -35 5 -17 4 -17 -11 3 -9 13 -15 32 -12 42 3 13 -2 19 -17 22 -19 4
-21 -1 -24 -43 -2 -26 1 -50 6 -53 13 -8 3 -53 -14 -67 -21 -17 -75 -21 -106
-8 -16 6 -47 13 -70 14 -24 2 -46 4 -50 4 -5 1 -8 11 -9 24 0 21 -1 21 -11 -3
-5 -14 -14 -33 -19 -42 -5 -11 -5 -20 2 -24 6 -3 9 -14 6 -24 -5 -20 17 -30
71 -30 17 0 32 -4 32 -10 0 -17 -138 -12 -176 6 -40 19 -44 34 -9 34 14 0 25
-4 25 -10 0 -5 7 -10 15 -10 17 0 20 16 5 25 -6 4 -8 11 -5 16 3 5 -7 17 -23
26 -29 18 -33 43 -6 43 9 0 14 11 14 32 0 17 -3 28 -6 25 -4 -3 -16 0 -28 8
-30 21 -49 19 -43 -5 6 -23 -27 -38 -47 -21 -10 9 -15 8 -20 -5 -3 -9 -3 -21
1 -27 4 -6 0 -8 -9 -4 -9 3 -24 -3 -34 -14 -9 -10 -25 -19 -36 -19 -12 0 -18
-7 -18 -21 0 -12 -4 -17 -11 -14 -6 4 -8 13 -5 21 3 9 -2 14 -14 14 -11 0 -20
-4 -20 -10 0 -5 -7 -10 -15 -10 -12 0 -15 -16 -15 -85 l0 -85 -80 0 c-76 0
-80 -1 -81 -22 -1 -13 -5 -5 -9 17 l-7 40 -2 -47 c-1 -45 0 -47 34 -58 28 -9
39 -9 50 0 11 9 15 9 15 1 0 -6 15 -11 34 -11 26 0 35 5 39 21 3 12 10 18 16
14 14 -8 14 -75 1 -75 -5 0 -10 5 -10 10 0 13 -167 10 -194 -3 -14 -7 -22 -5
-31 7 -13 17 -25 12 -25 -11 0 -7 8 -13 17 -13 13 0 14 -3 5 -12 -15 -15 -16
-48 -1 -48 5 0 7 -5 4 -11 -4 -5 -21 -9 -38 -7 -23 2 -32 -1 -35 -14 -2 -11 3
-18 12 -18 9 0 16 -7 16 -15 0 -20 -6 -19 -30 5 -13 13 -35 21 -62 22 l-43 1
45 6 45 6 -2 55 c-1 43 1 51 10 40 14 -18 42 -20 42 -3 0 7 6 18 13 25 6 6 12
18 12 25 0 8 8 13 18 11 14 -3 17 5 18 47 l2 50 -8 -45 -7 -45 -1 47 c-2 46
-1 47 31 51 27 3 26 4 -11 5 -31 2 -41 -1 -36 -10 5 -8 -11 -9 -62 -5 -38 4
-95 7 -126 7 -45 0 -57 3 -61 18 -4 13 -5 11 -6 -5 0 -13 -7 -23 -15 -23 -8 0
-17 -7 -20 -16 -18 -48 8 -74 75 -74 60 0 66 -19 7 -22 l-43 -1 45 -7 45 -7
-42 -1 c-24 -1 -43 -6 -43 -12 0 -5 -18 -10 -39 -10 -40 0 -40 0 -31 31 6 19
6 38 0 48 -4 9 -8 26 -7 36 2 16 -6 21 -43 26 -25 3 -39 7 -32 7 8 2 12 23 11
75 -1 67 -15 190 -18 158 -1 -11 -5 -10 -16 5 -19 25 -20 81 0 81 16 0 28 -24
19 -38 -3 -5 2 -16 10 -25 9 -9 16 -32 16 -55 0 -35 3 -39 25 -39 18 0 25 -5
25 -20 0 -11 7 -20 16 -20 11 0 14 -6 9 -20 -7 -21 10 -28 18 -7 4 9 8 8 16
-3 6 -8 12 -19 13 -23 5 -12 242 -14 248 -2 3 6 -12 11 -32 13 -25 2 -38 8
-38 17 0 23 -33 34 -79 28 -42 -6 -43 -6 -40 23 2 16 0 35 -4 42 -12 18 8 15
24 -4 10 -13 10 -17 -1 -24 -12 -7 -11 -10 3 -16 10 -4 23 -2 29 4 7 7 16 7
31 -1 15 -9 21 -9 24 1 3 8 26 12 64 12 l59 0 0 74 c0 50 4 75 13 79 7 2 66 5
132 6 66 1 121 4 124 7 2 2 -88 3 -200 2 -112 -1 -183 -3 -156 -5 l47 -4 0
-45 c0 -24 -4 -44 -10 -44 -5 0 -10 9 -10 19 0 28 -27 51 -61 51 -18 0 -28 5
-26 13 1 9 -73 12 -343 13 -190 1 -325 -1 -300 -5 48 -6 49 -8 36 -75 -6 -27
-4 -28 24 -24 17 3 30 1 30 -4 0 -4 -6 -8 -14 -8 -19 0 -27 -25 -13 -39 6 -6
19 -11 28 -11 11 0 22 -15 32 -42 l15 -43 16 38 c9 21 21 35 26 32 6 -3 10 -1
10 4 0 6 7 11 15 11 21 0 30 27 15 45 -10 13 -14 13 -27 0 -21 -22 -36 -18
-30 6 3 12 1 29 -6 39 -8 14 -8 22 3 35 13 15 15 15 30 -5 10 -14 22 -19 33
-14 21 8 12 24 -14 24 -10 0 -19 5 -19 11 0 6 16 10 38 9 20 -1 39 -1 42 0 28
9 40 6 40 -11 0 -10 -6 -19 -14 -19 -8 0 -15 -16 -19 -41 -3 -23 -13 -46 -24
-54 -17 -13 -17 -14 0 -20 9 -4 17 -16 17 -26 0 -11 7 -22 15 -25 26 -10 18
-32 -10 -26 -25 4 -25 4 -26 -79 -1 -46 -4 -74 -6 -61 -4 22 -5 23 -18 5 -13
-16 -15 -9 -17 57 l-2 75 -5 -80 -6 -80 -40 -6 -40 -6 35 -2 c29 -1 35 -5 36
-24 1 -20 -2 -22 -37 -19 -31 3 -39 1 -39 -13 0 -13 -8 -16 -37 -13 -33 3 -38
6 -38 28 0 24 -2 25 -82 28 l-83 3 0 -28 0 -28 -155 3 -155 3 0 49 c0 43 -3
50 -20 50 -14 0 -20 7 -20 21 0 18 2 19 15 9 12 -10 15 -10 15 2 0 10 -18 14
-71 16 -46 1 -68 -2 -64 -8 4 -6 16 -8 27 -4 17 5 18 3 10 -13 -7 -12 -7 -25
-1 -36 8 -14 6 -17 -16 -17 -21 0 -25 -5 -25 -30 0 -16 5 -30 10 -30 6 0 10 5
10 10 0 6 5 10 10 10 6 0 10 -7 10 -15 0 -22 -47 -19 -55 4 -3 10 -3 25 1 34
5 14 1 15 -31 6 -26 -8 -41 -7 -48 0 -6 6 -28 11 -48 11 -21 0 -40 6 -42 13
-4 10 -6 10 -6 0 -1 -7 -8 -13 -16 -13 -13 0 -13 4 -3 23 7 12 19 26 25 30 7
4 13 16 14 25 0 10 3 12 6 5 3 -8 14 -11 29 -7 13 3 30 1 38 -5 11 -9 22 -8
50 6 36 17 46 37 24 46 -10 4 -9 8 2 16 11 8 12 16 4 38 -9 26 -13 28 -57 25
-36 -2 -54 2 -74 17 l-26 21 53 0 c43 0 51 3 46 16 -4 11 0 15 16 12 26 -4 37
-28 12 -28 -14 0 -15 -3 -6 -12 9 -9 18 -8 37 2 32 17 32 65 1 65 -11 0 -21 6
-23 13 -3 6 2 12 11 12 9 0 16 7 16 16 0 13 12 15 75 12 46 -2 75 1 75 7 0 6
4 4 9 -4 5 -8 7 -29 4 -48 -3 -19 -1 -33 5 -33 13 0 22 24 22 60 0 16 5 32 10
35 10 6 11 2 14 -47 2 -27 16 -53 16 -29 0 7 9 9 25 5 30 -8 35 13 5 24 -19 7
-19 9 -4 30 8 12 26 22 40 22 16 0 24 6 25 18 1 9 5 -7 9 -36 4 -29 10 -56 13
-59 15 -14 25 12 23 57 -1 28 2 50 7 50 4 0 6 -3 4 -7 -3 -5 -1 -17 4 -28 7
-18 8 -17 8 7 1 27 1 27 84 31 45 1 -26 4 -158 4 -132 1 -249 -2 -260 -7 -17
-7 -17 -9 -2 -9 9 -1 17 -6 17 -12 0 -6 -7 -8 -16 -5 -9 3 -24 6 -35 6 -10 0
-19 7 -19 15 0 13 -21 15 -125 15 l-125 0 0 -45 c0 -25 5 -45 10 -45 6 0 10
18 10 40 0 29 4 40 15 40 11 0 15 -11 15 -40 0 -29 4 -40 15 -40 19 0 22 -80
3 -80 -8 0 -7 -4 3 -10 17 -10 15 -60 -3 -60 -5 0 -4 -8 2 -19 14 -28 -13 -55
-41 -41 -22 12 -25 30 -7 48 9 9 6 12 -15 12 -22 0 -27 -5 -32 -34 -5 -22 -14
-36 -26 -39 -20 -5 -26 7 -9 18 13 8 8 55 -6 55 -7 0 -25 15 -42 34 l-30 34
-13 -26 c-11 -20 -11 -26 -2 -29 7 -3 13 -15 13 -27 0 -12 5 -27 12 -34 9 -9
8 -12 -5 -12 -9 0 -17 7 -17 15 0 13 -25 21 -53 16 -4 -1 -26 3 -49 8 -54 13
-69 1 -66 -51 1 -26 -3 -43 -13 -49 -9 -6 -10 -9 -1 -9 6 0 12 -8 12 -17 0
-16 -12 -18 -85 -21 -70 -2 -84 0 -79 12 3 8 12 12 19 10 7 -3 16 -1 20 5 3 6
-5 15 -20 21 -35 13 -33 14 -38 -22 -3 -29 -4 -27 -5 10 -2 35 -5 42 -22 42
-11 0 -20 7 -20 15 0 19 76 21 83 3 4 -10 8 -9 16 2 16 22 13 43 -4 36 -9 -3
-15 0 -15 9 0 9 10 15 28 16 l27 1 -33 14 c-30 13 -37 13 -64 0 -22 -12 -35
-13 -49 -5 -11 5 -29 7 -41 3 -14 -4 -18 -2 -14 5 4 6 14 11 23 11 9 0 13 6 9
15 -3 9 0 15 10 15 11 0 13 6 9 20 -5 15 -3 18 9 14 12 -5 15 -2 10 10 -6 15
-1 17 31 14 24 -2 40 2 42 10 3 6 -2 12 -11 12 -20 0 -21 36 -1 44 22 8 18 36
-5 36 -25 0 -26 17 -2 23 9 3 -290 5 -666 6 -597 1 -683 -1 -688 -14 -4 -8
-11 -12 -16 -9 -6 4 -5 10 3 15 8 5 -443 9 -1028 9 l-1043 0 0 -1731z m1830
1696 c0 -14 -4 -25 -10 -25 -5 0 -10 11 -10 25 0 14 5 25 10 25 6 0 10 -11 10
-25z m326 10 c13 -12 12 -17 -2 -34 -14 -16 -20 -17 -35 -8 -22 14 -24 23 -6
42 16 18 25 18 43 0z m651 -47 c-2 -13 -4 -3 -4 22 0 25 2 35 4 23 2 -13 2
-33 0 -45z m563 53 c0 -9 -62 -22 -70 -14 -8 7 24 23 48 23 12 0 22 -4 22 -9z
m747 -9 c-21 -23 -22 -42 -3 -42 8 0 18 -4 21 -10 4 -6 -10 -10 -34 -10 -33 0
-41 4 -41 18 0 27 29 62 52 62 20 0 20 -1 5 -18z m243 3 c0 -8 -4 -15 -9 -15
-5 0 -11 7 -15 15 -3 9 0 15 9 15 8 0 15 -7 15 -15z m520 -25 c0 -44 -25 -58
-32 -17 -6 33 2 57 18 57 10 0 14 -12 14 -40z m320 19 c0 -5 -7 -9 -15 -9 -9
0 -12 6 -9 15 6 15 24 11 24 -6z m170 12 c0 -11 -26 -22 -34 -14 -12 12 -5 23
14 23 11 0 20 -4 20 -9z m-80 -10 c0 -6 -17 -7 -37 -4 -52 8 -54 13 -5 13 23
0 42 -4 42 -9z m-2700 -11 c0 -5 -2 -10 -4 -10 -3 0 -8 5 -11 10 -3 6 -1 10 4
10 6 0 11 -4 11 -10z m2320 -11 c0 -5 -4 -9 -10 -9 -5 0 -10 7 -10 16 0 8 5
12 10 9 6 -3 10 -10 10 -16z m-1940 -20 c0 -24 -3 -30 -16 -25 -9 3 -20 6 -25
6 -5 0 -3 11 3 25 16 35 38 32 38 -6z m-493 -1 c-3 -8 -6 -5 -6 6 -1 11 2 17
5 13 3 -3 4 -12 1 -19z m2801 15 c-10 -2 -28 -2 -40 0 -13 2 -5 4 17 4 22 1
32 -1 23 -4z m1592 -15 c0 -19 -2 -20 -10 -8 -13 19 -13 30 0 30 6 0 10 -10
10 -22z m-1502 -16 c2 -7 -2 -10 -12 -6 -9 3 -16 11 -16 16 0 13 23 5 28 -10z
m1585 11 c-13 -2 -33 -2 -45 0 -13 2 -3 4 22 4 25 0 35 -2 23 -4z m-4409 -51
c-21 -5 -26 2 -18 22 6 15 7 15 20 -1 11 -15 10 -19 -2 -21z m730 22 c10 -25
-1 -29 -14 -5 -6 12 -7 21 -1 21 5 0 12 -7 15 -16z m-1298 -31 c-11 -11 -19 6
-11 24 8 17 8 17 12 0 3 -10 2 -21 -1 -24z m4686 10 c7 -15 24 -33 38 -40 14
-7 19 -13 12 -13 -7 0 -10 -4 -7 -10 9 -15 25 -12 25 4 0 14 74 31 91 21 12
-8 -15 -35 -35 -35 -9 0 -16 -7 -16 -15 0 -8 5 -15 12 -15 9 0 9 -3 0 -12 -10
-10 -17 -10 -32 -1 -14 10 -19 10 -23 0 -3 -9 -10 -9 -31 1 -15 6 -40 12 -56
12 -27 0 -30 3 -30 30 0 24 -4 30 -21 30 -18 0 -19 3 -9 15 6 8 9 19 5 25 -10
17 4 30 35 30 22 0 32 -7 42 -27z m-3852 -15 c-1 -31 -1 -32 -15 -14 -11 14
-12 23 -4 33 17 19 19 17 19 -19z m3757 -19 c1 -31 -2 -39 -17 -39 -10 0 -23
-7 -30 -15 -7 -9 -18 -14 -24 -12 -6 2 -22 0 -35 -5 -17 -6 -35 -4 -60 8 -34
17 -35 17 -13 27 12 6 22 14 22 19 0 4 7 8 15 8 8 0 15 5 15 10 0 13 37 13 45
0 5 -8 11 -8 20 0 10 8 14 7 18 -2 2 -7 8 -10 12 -6 4 4 2 14 -4 22 -16 19 -6
36 17 29 12 -3 17 -15 19 -44z m303 41 c0 -5 -2 -10 -4 -10 -3 0 -8 5 -11 10
-3 6 -1 10 4 10 6 0 11 -4 11 -10z m-3900 -10 c0 -5 -7 -7 -15 -4 -8 4 -15 8
-15 10 0 2 7 4 15 4 8 0 15 -4 15 -10z m1123 -15 c1 -5 -6 -11 -15 -13 -11 -2
-18 3 -18 13 0 17 30 18 33 0z m1358 -8 c-1 -12 -15 -9 -19 4 -3 6 1 10 8 8 6
-3 11 -8 11 -12z m79 3 c0 -5 -15 -10 -32 -10 -25 0 -29 3 -18 10 20 13 50 13
50 0z m1273 3 c-7 -2 -19 -2 -25 0 -7 3 -2 5 12 5 14 0 19 -2 13 -5z m-1671
-60 c-2 -13 -8 -23 -12 -23 -4 0 -10 -7 -13 -14 -4 -10 -1 -13 9 -9 17 6 19
-33 4 -87 -7 -26 -15 -36 -30 -36 -14 0 -20 7 -20 24 0 15 5 22 13 19 9 -3 11
11 9 59 -3 56 -2 64 15 65 10 0 13 3 6 6 -7 2 -13 9 -13 14 0 6 6 16 13 23 10
12 13 11 18 -2 3 -9 4 -26 1 -39z m890 38 c-13 -8 -15 -148 -2 -156 5 -3 10
-23 10 -44 0 -34 4 -41 35 -55 20 -10 44 -14 55 -11 14 4 22 1 27 -10 9 -24
-16 -36 -58 -29 -21 3 -39 1 -42 -4 -8 -12 -117 -16 -117 -4 0 5 9 12 20 15
11 3 20 10 20 16 0 6 -9 11 -20 11 -11 0 -20 5 -20 10 0 6 18 10 41 10 35 0
40 2 34 20 -3 10 -6 46 -6 80 0 33 -7 73 -15 88 -20 38 -17 57 9 69 22 11 47
6 29 -6z m-5400 -3 c-9 -9 -15 -9 -24 0 -9 9 -7 12 12 12 19 0 21 -3 12 -12z
m898 -8 c0 -11 -2 -20 -4 -20 -2 0 -6 9 -9 20 -3 11 -1 20 4 20 5 0 9 -9 9
-20z m318 10 c7 0 10 -5 7 -10 -4 -6 -15 -8 -25 -5 -10 3 -21 1 -25 -5 -3 -5
-14 -10 -23 -9 -11 0 -12 3 -4 6 6 2 12 12 12 20 0 11 6 14 23 9 12 -3 28 -6
35 -6z m142 -27 c0 -50 -11 -57 -66 -41 -60 17 -64 38 -9 54 64 20 75 18 75
-13z m910 -7 c0 -19 -4 -38 -10 -41 -6 -4 -10 10 -10 34 0 23 5 41 10 41 6 0
10 -15 10 -34z m190 -48 c0 -58 -3 -79 -11 -71 -9 9 -3 153 7 153 2 0 4 -37 4
-82z m150 42 c0 -17 -39 -31 -67 -24 l-27 7 24 9 c12 5 31 6 41 3 11 -4 19 -2
19 4 0 6 2 11 5 11 3 0 5 -4 5 -10z m2713 -15 c4 -8 2 -17 -3 -20 -6 -4 -10 3
-10 14 0 25 6 27 13 6z m-1845 -15 c-11 -17 -10 -22 2 -30 8 -5 11 -12 7 -16
-3 -4 -15 4 -26 17 -17 22 -17 24 -2 36 24 19 33 15 19 -7z m2262 0 c20 -6 14
-8 -27 -9 -29 -1 -53 3 -53 9 0 12 44 12 80 0z m-3553 -67 c-2 -16 -4 -5 -4
22 0 28 2 40 4 28 2 -13 2 -35 0 -50z m1026 42 c-3 -8 -9 -15 -14 -15 -10 0
-12 24 -3 33 11 11 24 -3 17 -18z m1997 -44 c0 -32 3 -86 7 -121 5 -49 3 -61
-6 -55 -9 5 -11 19 -6 41 5 31 2 36 -21 33 -21 -3 -33 74 -14 86 6 3 10 22 10
41 0 24 5 34 15 34 12 0 15 -13 15 -59z m804 43 c8 -20 8 -19 -25 -27 -24 -6
-26 -4 -21 18 5 29 36 34 46 9z m-377 -56 c-3 -8 -6 -5 -6 6 -1 11 2 17 5 13
3 -3 4 -12 1 -19z m50 0 c-3 -8 -6 -5 -6 6 -1 11 2 17 5 13 3 -3 4 -12 1 -19z
m168 -1 c14 -3 10 -5 -12 -6 -28 -1 -32 -5 -38 -41 -4 -22 -11 -43 -16 -46
-18 -11 -39 18 -39 52 0 31 3 34 29 34 18 0 31 6 35 17 5 11 9 14 14 6 4 -6
16 -13 27 -16z m463 -12 c3 -3 -4 -5 -16 -5 -11 0 -23 4 -27 9 -6 10 33 6 43
-4z m-4633 -39 c-4 -20 -11 -36 -16 -36 -12 0 -11 10 2 49 14 41 22 34 14 -13z
m125 35 c0 -6 -4 -13 -10 -16 -5 -3 -10 1 -10 9 0 9 5 16 10 16 6 0 10 -4 10
-9z m938 -3 c-2 -6 -10 -14 -16 -16 -7 -2 -10 2 -6 12 7 18 28 22 22 4z m2071
0 c14 0 4 -4 -24 -8 l-50 -7 43 -1 c53 -2 56 -22 2 -22 -22 0 -40 -4 -40 -10
0 -5 -13 -10 -30 -10 -30 0 -43 23 -17 33 6 3 2 6 -10 6 -14 1 -23 7 -23 17 0
15 9 16 61 10 34 -3 74 -7 88 -8z m469 5 c-10 -2 -26 -2 -35 0 -10 3 -2 5 17
5 19 0 27 -2 18 -5z m272 -33 c0 -29 4 -40 15 -40 8 0 15 -4 15 -8 0 -15 49
-32 88 -32 35 1 36 2 18 15 -17 13 -17 15 -4 15 9 0 19 -4 23 -9 7 -12 179 -2
183 10 2 5 15 9 29 9 25 0 25 -2 21 -50 l-5 -50 48 0 c59 0 64 1 63 18 -1 7
11 12 30 12 18 0 38 6 44 12 10 10 17 10 31 1 10 -7 22 -9 25 -5 13 12 86 10
86 -2 0 -8 -11 -11 -29 -8 -39 5 -76 -15 -61 -33 6 -8 21 -16 33 -18 12 -2 4
-5 -19 -6 -22 0 -45 4 -51 10 -7 7 -28 7 -71 -1 -62 -13 -167 -6 -177 10 -3 5
2 15 10 23 21 21 19 27 -10 27 -25 0 -25 0 -25 -97 0 -53 -3 -93 -6 -90 -4 4
-6 43 -5 87 l2 81 -53 -3 c-52 -3 -53 -4 -53 -33 0 -23 -5 -31 -22 -33 -24 -4
-31 16 -13 34 15 15 -7 31 -50 37 -19 2 -11 3 18 1 28 -1 52 2 52 7 0 5 -27 9
-60 9 -33 0 -60 -4 -60 -10 0 -5 -7 -10 -15 -10 -10 0 -15 10 -15 29 0 31 -16
43 -49 34 -12 -3 -21 -1 -21 6 0 6 5 11 10 11 6 0 10 18 10 40 0 22 5 40 10
40 6 0 10 -18 10 -40z m-2853 4 c-3 -19 -1 -24 10 -20 7 3 16 -1 19 -9 4 -8
17 -15 30 -15 21 0 24 -5 24 -35 0 -25 -4 -33 -14 -29 -8 3 -17 1 -21 -5 -3
-6 -24 -11 -46 -11 l-39 0 -2 43 -1 42 -7 -45 -7 -45 -1 48 c-2 34 2 49 13 53
8 4 15 12 15 18 0 11 19 36 28 36 2 0 2 -12 -1 -26z m2191 19 c-10 -2 -26 -2
-35 0 -10 3 -2 5 17 5 19 0 27 -2 18 -5z m-1748 -24 c0 -11 -4 -17 -10 -14 -5
3 -10 13 -10 21 0 8 5 14 10 14 6 0 10 -9 10 -21z m-1620 1 c0 -5 -4 -10 -10
-10 -5 0 -10 5 -10 10 0 6 5 10 10 10 6 0 10 -4 10 -10z m1710 0 c0 -5 -9 -10
-20 -10 -11 0 -20 5 -20 10 0 6 9 10 20 10 11 0 20 -4 20 -10z m2847 -20 c-1
-16 -5 -30 -8 -30 -4 0 -9 -10 -12 -22 -7 -26 -22 -16 -22 15 -1 12 -4 28 -9
35 -4 7 -5 16 -2 19 3 4 6 1 6 -5 0 -7 5 -12 10 -12 6 0 10 7 10 15 0 8 7 15
15 15 10 0 14 -9 12 -30z m-4277 -15 c0 -8 -4 -17 -10 -20 -6 -4 -10 5 -10 20
0 15 4 24 10 20 6 -3 10 -12 10 -20z m1470 10 c0 -8 -7 -15 -15 -15 -26 0 -18
20 13 29 1 1 2 -6 2 -14z m1618 -2 c-10 -2 -28 -2 -40 0 -13 2 -5 4 17 4 22 1
32 -1 23 -4z m-2753 -12 c3 -5 1 -12 -5 -16 -5 -3 -10 -17 -10 -30 0 -13 -3
-26 -7 -28 -6 -4 -9 62 -4 81 2 6 20 1 26 -7z m3157 -31 c-2 -22 -6 -40 -8
-40 -2 0 -4 18 -4 40 0 22 3 40 8 40 4 0 6 -18 4 -40z m-2695 -32 c-2 -13 -4
-3 -4 22 0 25 2 35 4 23 2 -13 2 -33 0 -45z m2670 10 c-2 -13 -4 -5 -4 17 -1
22 1 32 4 23 2 -10 2 -28 0 -40z m-40 -10 c-2 -13 -4 -5 -4 17 -1 22 1 32 4
23 2 -10 2 -28 0 -40z m423 48 c0 -2 -7 -6 -15 -10 -8 -3 -15 -1 -15 4 0 6 7
10 15 10 8 0 15 -2 15 -4z m-2828 -40 c2 -19 0 -32 -4 -30 -4 3 -8 -13 -8 -35
0 -23 -4 -41 -10 -41 -13 0 -13 69 1 109 6 17 12 31 14 31 1 0 5 -15 7 -34z
m3158 -7 c0 -18 -2 -19 -15 -9 -8 7 -15 16 -15 21 0 5 7 9 15 9 9 0 15 -9 15
-21z m40 -5 c0 -8 -4 -12 -10 -9 -5 3 -10 10 -10 16 0 5 5 9 10 9 6 0 10 -7
10 -16z m-2800 -5 c0 -5 -16 -9 -35 -9 -19 0 -35 4 -35 9 0 5 16 9 35 9 19 0
35 -4 35 -9z m3167 -5 c-3 -3 -12 -4 -19 -1 -8 3 -5 6 6 6 11 1 17 -2 13 -5z
m-3620 -66 c-2 -13 -4 -3 -4 22 0 25 2 35 4 23 2 -13 2 -33 0 -45z m93 22 c0
-22 -4 -40 -10 -40 -5 0 -10 18 -10 40 0 22 5 40 10 40 6 0 10 -18 10 -40z
m17 -22 c-2 -13 -4 -3 -4 22 0 25 2 35 4 23 2 -13 2 -33 0 -45z m2113 45 c0
33 17 16 18 -18 l1 -35 -25 16 c-19 13 -28 14 -37 5 -8 -8 -7 -11 7 -11 12 0
16 -5 12 -16 -3 -9 -7 -50 -7 -92 l-2 -77 -9 85 c-5 47 -14 95 -21 108 -9 18
-7 25 9 36 16 13 21 12 37 -1 15 -15 17 -15 17 0z m-334 -4 c3 -5 -13 -9 -35
-9 -23 0 -41 4 -41 8 0 11 69 12 76 1z m404 -10 c0 -5 -4 -9 -10 -9 -5 0 -10
7 -10 16 0 8 5 12 10 9 6 -3 10 -10 10 -16z m640 11 c0 -5 -18 -10 -40 -10
-22 0 -40 5 -40 10 0 6 18 10 40 10 22 0 40 -4 40 -10z m-2873 -47 c-3 -10 -5
-4 -5 12 0 17 2 24 5 18 2 -7 2 -21 0 -30z m2621 30 c-10 -2 -28 -2 -40 0 -13
2 -5 4 17 4 22 1 32 -1 23 -4z m-2468 -23 c0 -5 -9 -10 -21 -10 -11 0 -17 5
-14 10 3 6 13 10 21 10 8 0 14 -4 14 -10z m640 -3 c0 -9 -10 -12 -35 -9 -19 2
-35 7 -35 11 0 4 16 8 35 9 24 2 35 -2 35 -11z m-1735 -7 c3 -5 -1 -10 -9 -10
-9 0 -16 5 -16 10 0 6 4 10 9 10 6 0 13 -4 16 -10z m4055 0 c0 -5 -8 -10 -17
-10 -15 0 -16 2 -3 10 19 12 20 12 20 0z m157 -6 c-3 -3 -12 -4 -19 -1 -8 3
-5 6 6 6 11 1 17 -2 13 -5z m-3480 -56 c-2 -13 -4 -5 -4 17 -1 22 1 32 4 23 2
-10 2 -28 0 -40z m1083 22 c0 -16 -4 -30 -9 -30 -5 0 -9 14 -9 30 1 17 5 30
10 30 4 0 8 -13 8 -30z m1227 -32 c-2 -13 -4 -3 -4 22 0 25 2 35 4 23 2 -13 2
-33 0 -45z m133 38 c0 -19 7 -25 33 -30 25 -5 29 -9 17 -17 -11 -7 -6 -9 20
-7 34 3 35 2 38 -36 4 -41 -13 -71 -27 -48 -13 22 -79 52 -114 52 -25 0 -37
-6 -45 -22 -9 -19 -11 -9 -11 55 l-1 77 45 0 c41 0 45 -2 45 -24z m1266 13 c3
-6 19 -9 35 -5 52 10 77 -13 42 -40 -17 -12 -17 -13 0 -19 9 -4 17 -17 17 -29
0 -12 5 -27 12 -34 6 -6 9 -15 5 -19 -4 -3 -14 2 -22 13 -11 14 -14 15 -15 4
0 -9 -10 -16 -26 -17 -31 -1 -44 -17 -44 -55 0 -14 -6 -28 -12 -31 -10 -3 -8
-10 6 -25 14 -16 17 -30 12 -53 -3 -17 -1 -40 5 -51 9 -17 7 -24 -10 -41 -21
-21 -31 -20 -35 5 -1 7 -5 19 -10 26 -5 8 -4 18 3 25 16 16 14 25 -9 32 -24 7
-26 37 -5 55 8 7 15 16 15 21 0 13 -28 11 -32 -3 -6 -16 -28 0 -28 20 0 18 33
52 50 52 6 0 10 4 10 9 0 4 -25 9 -55 10 -38 1 -55 -3 -55 -12 0 -8 -4 -7 -10
3 -5 8 -21 15 -36 15 -15 0 -29 6 -31 13 -4 9 16 12 76 12 77 0 81 1 82 23 1
16 2 18 6 5 6 -22 41 -24 49 -3 4 10 13 13 24 10 18 -6 35 19 24 36 -9 15 -34
10 -34 -6 0 -9 -9 -15 -22 -15 -29 0 -54 46 -37 67 14 16 45 17 55 2z m-2158
-6 c-10 -2 -28 -2 -40 0 -13 2 -5 4 17 4 22 1 32 -1 23 -4z m-1608 -13 c0 -5
-4 -10 -10 -10 -5 0 -10 5 -10 10 0 6 5 10 10 10 6 0 10 -4 10 -10z m765 -20
c-5 -8 -11 -8 -17 -2 -6 6 -7 16 -3 22 5 8 11 8 17 2 6 -6 7 -16 3 -22z m1895
14 c0 -2 -7 -4 -15 -4 -8 0 -15 4 -15 10 0 5 7 7 15 4 8 -4 15 -8 15 -10z
m754 10 c24 -9 19 -19 -8 -19 -15 0 -22 5 -19 13 6 14 6 14 27 6z m-3337 -36
c-3 -7 -5 -2 -5 12 0 14 2 19 5 13 2 -7 2 -19 0 -25z m1540 26 c-3 -3 -12 -4
-19 -1 -8 3 -5 6 6 6 11 1 17 -2 13 -5z m475 -2 c-12 -8 -72 -4 -72 4 0 2 19
4 43 4 25 0 37 -4 29 -8z m88 -6 c0 -3 -4 -8 -10 -11 -5 -3 -10 -1 -10 4 0 6
5 11 10 11 6 0 10 -2 10 -4z m841 -16 c15 0 31 5 34 10 10 17 25 11 25 -10 0
-11 -4 -20 -10 -20 -5 0 -10 4 -10 9 0 5 -20 4 -46 -1 -50 -11 -60 -7 -50 18
5 13 9 15 18 6 7 -7 24 -12 39 -12z m-3451 -10 c0 -5 -2 -10 -4 -10 -3 0 -8 5
-11 10 -3 6 -1 10 4 10 6 0 11 -4 11 -10z m2038 3 c-10 -2 -28 -2 -40 0 -13 2
-5 4 17 4 22 1 32 -1 23 -4z m-476 -48 c-2 -25 -7 -43 -11 -41 -9 6 -13 64 -6
77 13 21 20 6 17 -36z m1515 -17 c-3 -22 -4 -21 -11 4 -5 16 -5 36 0 45 7 16
8 15 11 -4 3 -13 3 -33 0 -45z m-3107 31 c0 -5 -7 -9 -15 -9 -9 0 -12 6 -9 15
6 15 24 11 24 -6z m556 -37 c-12 -12 -18 8 -10 35 l8 28 4 -28 c2 -16 1 -31
-2 -35z m254 48 c0 -5 -18 -10 -40 -10 -22 0 -40 5 -40 10 0 6 18 10 40 10 22
0 40 -4 40 -10z m500 -30 c0 -22 -4 -40 -10 -40 -5 0 -10 18 -10 40 0 22 5 40
10 40 6 0 10 -18 10 -40z m-190 20 c0 -5 -16 -10 -35 -10 -19 0 -35 5 -35 10
0 6 16 10 35 10 19 0 35 -4 35 -10z m2777 -12 c-3 -8 -6 -5 -6 6 -1 11 2 17 5
13 3 -3 4 -12 1 -19z m-3014 5 c8 -7 -11 -33 -24 -33 -5 0 -9 9 -9 20 0 19 20
27 33 13z m3115 -10 c-5 -25 -28 -28 -28 -4 0 12 6 21 16 21 9 0 14 -7 12 -17z
m-1290 -30 c-10 -2 -28 -2 -40 0 -13 2 -5 4 17 4 22 1 32 -1 23 -4z m-1011
-65 c-2 -13 -4 -5 -4 17 -1 22 1 32 4 23 2 -10 2 -28 0 -40z m60 0 c-2 -13 -4
-5 -4 17 -1 22 1 32 4 23 2 -10 2 -28 0 -40z m240 46 c-3 -3 -12 -4 -19 -1 -8
3 -5 6 6 6 11 1 17 -2 13 -5z m63 -4 c0 -5 -4 -10 -9 -10 -6 0 -13 5 -16 10
-3 6 1 10 9 10 9 0 16 -4 16 -10z m500 -37 c0 -13 -4 -23 -10 -23 -5 0 -10 17
-10 38 0 27 3 33 10 22 5 -8 10 -25 10 -37z m400 37 c0 -5 -16 -10 -35 -10
-19 0 -35 5 -35 10 0 6 16 10 35 10 19 0 35 -4 35 -10z m690 -5 c0 -8 -4 -15
-10 -15 -5 0 -10 7 -10 15 0 8 5 15 10 15 6 0 10 -7 10 -15z m167 -37 c-2 -13
-4 -5 -4 17 -1 22 1 32 4 23 2 -10 2 -28 0 -40z m183 42 c0 -5 -4 -10 -10 -10
-5 0 -10 5 -10 10 0 6 5 10 10 10 6 0 10 -4 10 -10z m-3210 -20 c19 -12 -34
-12 -100 -1 -45 8 -45 9 20 10 36 0 72 -4 80 -9z m3260 -46 c0 -2 -9 -4 -20
-4 -22 0 -23 3 -14 38 l7 23 13 -27 c8 -14 14 -28 14 -30z m-5170 36 c0 -5 -4
-10 -10 -10 -5 0 -10 5 -10 10 0 6 5 10 10 10 6 0 10 -4 10 -10z m2020 -5 c0
-8 -4 -15 -10 -15 -5 0 -10 6 -10 13 0 8 -4 7 -10 -3 -8 -13 -10 -12 -10 3 0
10 8 17 20 17 11 0 20 -7 20 -15z m2220 5 c0 -5 -2 -10 -4 -10 -3 0 -8 5 -11
10 -3 6 -1 10 4 10 6 0 11 -4 11 -10z m800 2 c0 -5 -7 -9 -15 -9 -8 0 -15 4
-15 9 0 4 7 8 15 8 8 0 15 -4 15 -8z m-3370 -34 c0 -5 -4 -8 -10 -8 -5 0 -10
10 -10 23 0 18 2 19 10 7 5 -8 10 -18 10 -22z m778 25 c-10 -2 -26 -2 -35 0
-10 3 -2 5 17 5 19 0 27 -2 18 -5z m2279 -25 c-3 -8 -6 -5 -6 6 -1 11 2 17 5
13 3 -3 4 -12 1 -19z m-2890 -4 c-3 -3 -12 -4 -19 -1 -8 3 -5 6 6 6 11 1 17
-2 13 -5z m141 -34 c3 -21 2 -22 -12 -11 -19 16 -21 44 -3 39 6 -3 14 -15 15
-28z m1288 -5 c3 -19 10 -38 15 -41 5 -3 9 -23 9 -44 0 -31 -3 -38 -17 -36
-12 2 -19 14 -21 36 -2 18 -12 41 -22 53 -18 19 -18 21 -2 43 23 32 30 30 38
-11z m834 25 c0 -14 34 -12 49 3 10 10 11 9 5 -6 -4 -12 -2 -16 8 -12 7 3 31
-11 53 -31 33 -30 45 -35 77 -32 37 3 38 3 38 -29 0 -18 -5 -33 -11 -33 -5 0
-7 5 -4 10 12 19 -26 23 -73 8 -26 -8 -74 -16 -107 -17 -60 -2 -87 -13 -66
-25 12 -8 15 -27 4 -25 -23 4 -33 -3 -33 -21 0 -11 -4 -20 -10 -20 -5 0 -10
-16 -10 -37 0 -46 -6 -40 -13 14 -3 30 -2 40 7 37 18 -7 13 166 -5 177 -11 6
-9 12 6 28 21 21 85 29 85 11z m760 0 c0 -5 -4 -10 -10 -10 -5 0 -10 5 -10 10
0 6 5 10 10 10 6 0 10 -4 10 -10z m-1192 -57 c-10 -2 -28 -2 -40 0 -13 2 -5 4
17 4 22 1 32 -1 23 -4z m320 0 c-10 -2 -28 -2 -40 0 -13 2 -5 4 17 4 22 1 32
-1 23 -4z m-3458 -13 c0 -5 -5 -10 -11 -10 -5 0 -7 5 -4 10 3 6 8 10 11 10 2
0 4 -4 4 -10z m1850 -10 c0 -5 -2 -10 -4 -10 -3 0 -8 5 -11 10 -3 6 -1 10 4
10 6 0 11 -4 11 -10z m947 -42 c-2 -13 -4 -5 -4 17 -1 22 1 32 4 23 2 -10 2
-28 0 -40z m161 20 c-7 -4 -21 -8 -30 -8 -10 0 -18 -4 -18 -10 0 -5 9 -10 19
-10 11 0 23 -4 26 -10 3 -5 -1 -10 -9 -10 -9 0 -21 -9 -28 -20 -18 -28 -25
-25 -38 15 -13 40 -5 79 16 71 7 -3 16 -1 19 4 3 5 16 5 31 -2 18 -8 21 -14
12 -20z m892 -3 c0 -24 -5 -35 -15 -35 -10 0 -15 11 -15 35 0 24 5 35 15 35
10 0 15 -11 15 -35z m-3220 -4 c0 -5 -7 -11 -15 -15 -9 -3 -15 0 -15 9 0 8 7
15 15 15 8 0 15 -4 15 -9z m460 -17 c12 -31 6 -44 -21 -44 -16 0 -18 -5 -13
-25 4 -15 2 -25 -5 -25 -11 0 -15 13 -12 38 1 7 -10 12 -28 12 -39 0 -47 14
-22 39 13 13 21 16 24 8 2 -8 9 -6 21 6 25 24 45 21 56 -9z m50 16 c0 -5 11
-12 24 -16 13 -3 28 -16 35 -30 6 -13 15 -24 21 -24 5 0 10 -4 10 -10 0 -17
-29 -11 -51 11 -12 12 -27 18 -39 14 -23 -7 -34 9 -26 41 6 23 26 34 26 14z
m2807 -22 c-3 -8 -6 -5 -6 6 -1 11 2 17 5 13 3 -3 4 -12 1 -19z m799 -5 c-10
-10 -19 5 -10 18 6 11 8 11 12 0 2 -7 1 -15 -2 -18z m-3971 -3 c3 -5 1 -10 -4
-10 -6 0 -11 5 -11 10 0 6 2 10 4 10 3 0 8 -4 11 -10z m35 0 c0 -5 -4 -10 -10
-10 -5 0 -10 5 -10 10 0 6 5 10 10 10 6 0 10 -4 10 -10z m2880 -20 c-33 -11
-62 -12 -57 -2 3 4 22 8 44 9 32 1 34 0 13 -7z m290 -20 c-8 -5 -16 -8 -17 -6
-2 2 -1 11 3 20 5 13 10 14 18 6 8 -8 7 -13 -4 -20z m100 20 c0 -5 -4 -10 -10
-10 -5 0 -10 5 -10 10 0 6 5 10 10 10 6 0 10 -4 10 -10z m108 -1 c-2 -6 -8
-10 -13 -10 -5 0 -11 4 -13 10 -2 6 4 11 13 11 9 0 15 -5 13 -11z m162 -5 c0
-12 -3 -14 -12 -6 -7 6 -26 12 -43 15 -24 3 -22 4 13 6 33 1 42 -3 42 -15z
m98 2 c-27 -20 -22 -26 22 -26 36 0 40 -2 40 -25 0 -14 -6 -25 -12 -26 -10 0
-10 -2 0 -6 26 -10 12 -33 -21 -33 -19 0 -36 -2 -39 -5 -3 -3 -2 -24 2 -46 9
-46 -7 -92 -28 -84 -8 3 -25 5 -38 5 -13 0 -23 5 -21 11 1 6 -17 12 -40 14
-37 3 -43 1 -43 -16 0 -10 -5 -19 -11 -19 -5 0 -7 -4 -4 -10 4 -6 15 -1 27 10
26 24 37 16 44 -36 l5 -39 -16 35 c-18 39 -36 28 -27 -18 5 -24 6 -25 13 -7 6
16 8 17 8 3 1 -9 -2 -23 -5 -32 -5 -12 -9 -13 -19 -3 -7 7 -11 15 -9 18 2 4
-10 9 -26 12 -21 5 -28 11 -24 22 8 20 -3 19 -32 -4 -18 -14 -32 -17 -52 -12
-35 9 -64 3 -56 -12 4 -7 1 -7 -7 1 -8 7 -14 32 -14 57 0 26 -5 47 -12 50 -7
2 -10 11 -7 20 8 19 24 20 24 0 0 -8 2 -15 4 -15 2 0 11 -3 19 -6 11 -4 14 4
13 35 -1 44 10 63 24 41 7 -11 12 -12 21 -3 7 7 31 9 65 6 50 -5 54 -4 54 16
0 20 -5 21 -79 21 l-79 0 -7 -30 c-7 -33 -19 -39 -29 -14 -3 8 -14 14 -23 13
-10 -2 -28 3 -41 10 -20 11 -27 10 -43 -5 -10 -9 -19 -23 -19 -31 0 -9 -13
-13 -40 -13 -54 0 -51 -20 3 -21 l42 -2 -40 -6 -40 -7 43 -5 c23 -2 42 -1 42
4 0 4 15 6 33 4 24 -2 33 -9 35 -25 2 -12 0 -22 -5 -22 -5 0 -21 -10 -37 -22
-33 -27 -208 -54 -199 -31 3 7 -2 13 -11 13 -13 0 -16 13 -16 75 l0 74 58 4
c47 3 43 4 -25 5 -52 1 -83 6 -83 13 0 7 27 9 79 7 l80 -3 5 28 c4 19 12 27
26 27 17 0 19 4 14 25 -9 35 19 33 45 -4 21 -29 21 -29 1 -34 -14 -4 -20 -14
-20 -33 l0 -28 28 27 c30 29 51 34 69 16 13 -13 33 -4 33 17 0 10 12 14 45 14
33 0 45 4 45 15 0 8 5 15 10 15 6 0 13 -7 16 -15 13 -33 136 -9 171 33 16 19
23 22 23 12 0 -9 -5 -21 -12 -28 -19 -19 6 -39 27 -22 14 12 18 11 26 -1 7
-12 9 -11 9 3 0 9 -5 18 -11 20 -18 6 8 48 29 48 16 -1 16 -2 0 -14z m-1381
-38 c-3 -7 -5 -2 -5 12 0 14 2 19 5 13 2 -7 2 -19 0 -25z m-1927 0 c0 -16 -3
-19 -11 -11 -6 6 -8 16 -5 22 11 17 16 13 16 -11z m1370 12 c0 -6 -32 -10 -75
-10 -43 0 -75 4 -75 10 0 6 32 10 75 10 43 0 75 -4 75 -10z m1380 -10 c0 -5
-2 -10 -4 -10 -3 0 -8 5 -11 10 -3 6 -1 10 4 10 6 0 11 -4 11 -10z m-2925 -20
c18 -8 17 -9 -7 -9 -16 -1 -28 4 -28 9 0 12 8 12 35 0z m232 4 c-3 -3 -12 -4
-19 -1 -8 3 -5 6 6 6 11 1 17 -2 13 -5z m2505 -2 c-8 -6 -15 -54 -21 -143 l-8
-134 -3 95 -4 95 -6 -80 c-6 -78 -6 -76 -8 42 -1 86 -6 123 -14 126 -7 3 7 6
32 6 26 0 40 -3 32 -7z m1108 -7 c0 -8 -4 -15 -10 -15 -5 0 -10 7 -10 15 0 8
5 15 10 15 6 0 10 -7 10 -15z m-2957 -10 c1 -5 -6 -11 -15 -13 -11 -2 -18 3
-18 13 0 17 30 18 33 0z m1297 5 c0 -5 -4 -10 -10 -10 -5 0 -10 5 -10 10 0 6
5 10 10 10 6 0 10 -4 10 -10z m1414 4 c21 -8 2 -34 -25 -34 -21 0 -26 26 -6
33 6 3 13 6 14 6 1 1 9 -2 17 -5z m154 -9 c24 -5 32 -11 28 -22 -3 -8 -6 -19
-6 -24 0 -5 -17 -9 -37 -9 -31 1 -35 3 -20 11 24 14 21 26 -10 44 -19 11 -21
14 -8 11 11 -2 35 -8 53 -11z m-2768 -30 c0 -24 -5 -35 -15 -35 -10 0 -15 11
-15 35 0 24 5 35 15 35 10 0 15 -11 15 -35z m46 9 c-5 -17 -1 -35 9 -50 12
-19 14 -38 9 -89 -4 -36 -11 -65 -16 -65 -6 0 -7 27 -3 70 5 46 4 70 -3 70 -6
0 -13 -15 -15 -32 -2 -21 -4 -13 -5 22 -2 63 6 100 20 100 6 0 7 -11 4 -26z
m464 -14 c0 -22 -4 -40 -10 -40 -5 0 -10 3 -10 8 0 4 -18 6 -40 4 -39 -4 -40
-3 -40 28 0 31 1 32 40 28 22 -2 40 0 40 4 0 5 5 8 10 8 6 0 10 -18 10 -40z
m48 5 c1 -19 -3 -37 -8 -40 -6 -4 -10 11 -10 34 0 50 16 55 18 6z m82 31 c0
-11 -19 -15 -25 -6 -3 5 1 10 9 10 9 0 16 -2 16 -4z m1008 -77 c-11 -7 -11 -9
0 -9 10 0 10 -4 -2 -16 -9 -8 -16 -21 -16 -29 0 -7 -7 -15 -15 -19 -8 -3 -15
-12 -15 -21 0 -8 -9 -15 -19 -15 -11 0 -27 -7 -35 -16 -15 -14 -16 -9 -14 53
1 41 3 53 5 31 3 -30 9 -38 24 -38 11 0 19 7 19 16 0 8 5 12 10 9 6 -4 10 7
10 24 0 17 5 31 10 31 6 0 10 9 10 19 0 10 7 21 15 25 8 3 16 13 17 23 1 10 3
0 5 -21 3 -25 0 -42 -9 -47z m42 46 c0 -19 -4 -35 -10 -35 -5 0 -10 16 -10 35
0 19 5 35 10 35 6 0 10 -16 10 -35z m-2602 18 c-21 -2 -55 -2 -75 0 -21 2 -4
4 37 4 41 0 58 -2 38 -4z m1152 -20 c0 -32 -58 -36 -82 -6 -10 11 -18 23 -18
25 0 2 22 4 50 3 45 0 50 -2 50 -22z m1655 7 c13 -6 -7 -8 -60 -8 -77 1 -78 2
-25 8 30 4 57 7 60 8 3 0 14 -3 25 -8z m-680 -50 c3 -5 -3 -10 -14 -10 -12 0
-21 5 -21 10 0 6 6 10 14 10 8 0 18 -4 21 -10z m-1085 -10 c0 -5 -2 -10 -4
-10 -3 0 -8 5 -11 10 -3 6 -1 10 4 10 6 0 11 -4 11 -10z m1310 -65 c0 -60 -3
-75 -15 -75 -12 0 -15 15 -15 75 0 60 3 75 15 75 12 0 15 -15 15 -75z m320
-10 l0 -85 33 -2 32 -1 -32 -4 c-45 -6 -42 -21 5 -26 l37 -4 -40 1 c-33 1 -40
5 -46 26 -11 40 -10 180 1 180 6 0 10 -35 10 -85z m-1303 28 c-3 -10 -5 -2 -5
17 0 19 2 27 5 18 2 -10 2 -26 0 -35z m40 0 c-3 -10 -5 -2 -5 17 0 19 2 27 5
18 2 -10 2 -26 0 -35z m211 20 c-4 -22 -22 -20 -26 1 -2 10 3 16 13 16 10 0
15 -7 13 -17z m-308 -3 c0 -5 -16 -10 -35 -10 -19 0 -35 5 -35 10 0 6 16 10
35 10 19 0 35 -4 35 -10z m2290 0 c0 -5 -2 -10 -4 -10 -3 0 -8 5 -11 10 -3 6
-1 10 4 10 6 0 11 -4 11 -10z m-52 -18 c6 -18 -15 -14 -22 4 -4 10 -1 14 6 12
6 -2 14 -10 16 -16z m-2238 -47 c0 -38 -3 -45 -20 -45 -11 0 -20 7 -20 15 0 8
7 15 15 15 8 0 15 9 15 20 0 26 -18 25 -41 -2 l-19 -21 0 26 c0 22 5 26 33 30
17 2 33 5 35 5 1 1 2 -18 2 -43z m738 23 c-2 -14 -11 -24 -23 -25 -11 -2 -14
0 -7 3 19 9 14 24 -7 24 -11 0 -23 5 -26 10 -4 6 8 10 30 10 32 0 36 -3 33
-22z m538 -25 c-4 -48 -21 -67 -37 -42 -15 23 -11 69 6 69 8 0 15 5 15 10 0 6
4 10 10 10 5 0 8 -21 6 -47z m1081 31 c-3 -3 -12 -4 -19 -1 -8 3 -5 6 6 6 11
1 17 -2 13 -5z m-4291 -66 c-6 -15 -14 -28 -19 -28 -5 0 -6 7 -3 16 3 9 6 30
6 47 0 28 1 29 14 12 10 -14 11 -25 2 -47z m54 58 c0 -2 -7 -9 -15 -16 -12
-10 -15 -10 -15 4 0 9 7 16 15 16 8 0 15 -2 15 -4z m445 -6 c-3 -5 -12 -7 -20
-3 -21 7 -19 13 6 13 11 0 18 -4 14 -10z m1215 -5 c-7 -8 -14 -15 -15 -15 -2
0 -5 7 -9 15 -4 10 1 15 16 15 17 0 18 -2 8 -15z m2754 3 c-19 -6 -35 -20 -41
-36 -11 -26 -11 -26 -12 11 l-1 37 43 -1 42 -1 -31 -10z m-2690 -13 c3 -9 18
-15 40 -15 19 0 38 -5 41 -11 8 -12 -40 -85 -61 -93 -24 -9 -17 41 9 59 21 16
20 17 -40 12 -60 -5 -93 6 -59 19 9 3 16 12 16 19 0 12 12 19 41 24 4 0 9 -6
13 -14z m2709 -1 c4 -4 -3 -15 -15 -25 -36 -32 -52 -22 -21 13 17 19 26 22 36
12z m-153 -39 c0 -11 -11 -15 -40 -15 -34 0 -40 -3 -40 -21 0 -11 4 -18 9 -15
16 10 71 -6 71 -20 0 -8 4 -14 9 -14 6 0 3 -16 -5 -35 -8 -19 -11 -35 -7 -36
5 0 -2 -4 -15 -9 -25 -10 -51 -4 -54 14 -5 33 -2 62 7 69 6 5 1 6 -10 1 -11
-4 -33 -8 -50 -8 -28 -1 -30 2 -33 37 l-3 37 40 0 c30 0 41 4 41 15 0 11 11
15 40 15 29 0 40 -4 40 -15z m-3440 -24 c0 -7 -51 -11 -149 -11 -97 0 -152 -4
-157 -11 -4 -7 -10 -7 -16 -1 -6 6 -8 15 -4 20 8 13 326 16 326 3z m1200 -1
c0 -5 -16 -10 -35 -10 -19 0 -35 5 -35 10 0 6 16 10 35 10 19 0 35 -4 35 -10z
m180 0 c0 -5 -20 -10 -45 -10 -25 0 -45 5 -45 10 0 6 20 10 45 10 25 0 45 -4
45 -10z m28 -10 c-7 -10 -14 -18 -15 -16 -6 6 9 36 18 36 5 0 4 -9 -3 -20z
m112 10 c0 -5 -17 -10 -37 -10 -28 0 -34 3 -23 10 20 13 60 13 60 0z m21 -37
c2 -23 0 -45 -4 -49 -4 -4 -7 17 -7 46 0 62 7 64 11 3z m39 27 c0 -11 -4 -20
-10 -20 -5 0 -10 9 -10 20 0 11 5 20 10 20 6 0 10 -9 10 -20z m1150 -3 c-14
-8 -24 -19 -22 -25 1 -7 -5 -12 -13 -12 -8 0 -15 9 -15 19 0 19 16 28 55 30
17 1 16 -1 -5 -12z m-4873 -29 c-3 -7 -5 -2 -5 12 0 14 2 19 5 13 2 -7 2 -19
0 -25z m4703 22 c0 -5 -12 -10 -27 -9 -25 0 -26 1 -8 9 27 12 35 12 35 0z
m365 -10 c3 -5 -1 -10 -9 -10 -9 0 -19 0 -23 -1 -4 0 -9 4 -11 10 -5 14 35 14
43 1z m-1965 -25 c0 -8 -4 -15 -9 -15 -13 0 -22 16 -14 24 11 11 23 6 23 -9z
m1840 5 c0 -5 -4 -10 -9 -10 -6 0 -13 5 -16 10 -3 6 1 10 9 10 9 0 16 -4 16
-10z m-2270 -46 c0 -6 -7 -17 -15 -24 -8 -7 -15 -18 -14 -24 1 -6 1 -22 0 -36
-2 -23 -3 -24 -15 -7 -8 10 -27 17 -46 17 -37 0 -34 12 2 14 14 1 24 8 26 21
2 11 13 28 24 39 11 10 17 25 14 35 -5 12 -2 11 9 -3 8 -11 15 -25 15 -32z
m-980 18 c0 -11 -37 -32 -44 -25 -15 15 -4 33 19 33 14 0 25 -3 25 -8z m510
-8 c0 -14 -3 -14 -15 -4 -8 7 -15 14 -15 16 0 2 7 4 15 4 8 0 15 -7 15 -16z
m740 7 c0 -5 -7 -11 -15 -15 -8 -3 -15 -13 -15 -22 0 -10 5 -14 15 -10 9 3 15
0 15 -9 0 -18 1 -18 -38 -4 -37 13 -47 33 -26 54 17 16 64 21 64 6z m1100 -26
c0 -45 -14 -45 -17 0 -2 19 2 35 7 35 6 0 10 -16 10 -35z m429 -6 c-18 -11
-22 -5 -14 22 7 20 8 21 17 4 8 -12 7 -20 -3 -26z m81 31 c0 -5 -4 -10 -10
-10 -5 0 -10 5 -10 10 0 6 5 10 10 10 6 0 10 -4 10 -10z m626 -40 l1 -50 -39
0 c-21 0 -38 5 -38 10 0 6 12 10 28 10 26 0 27 2 24 40 -3 29 0 40 9 40 10 0
14 -15 15 -50z m-876 21 c0 -11 3 -27 7 -37 5 -15 2 -16 -27 -10 -42 8 -43 10
-35 36 5 15 13 20 26 17 10 -3 17 -1 13 4 -3 5 0 9 5 9 6 0 11 -9 11 -19z
m526 -18 c-5 -73 -5 -73 -31 -73 -15 0 -25 6 -25 15 0 8 6 12 14 9 7 -3 16 2
20 12 5 13 1 16 -27 12 -26 -3 -33 0 -34 13 -2 21 26 34 41 19 16 -16 26 -12
26 10 0 11 4 20 9 20 5 0 8 -17 7 -37z m-1221 8 c3 -5 1 -12 -5 -16 -5 -3 -10
1 -10 9 0 18 6 21 15 7z m146 -1 c6 -72 2 -85 -24 -88 -19 -2 -27 1 -27 12 0
8 -8 20 -17 25 -15 9 -16 10 -2 11 9 0 21 11 27 25 11 24 41 35 43 15z m946
-17 c0 -16 3 -44 7 -63 6 -26 5 -31 -3 -20 -6 8 -11 26 -12 40 -1 21 -2 20 -9
-8 -11 -46 -20 -52 -20 -13 0 27 24 91 34 91 2 0 3 -12 3 -27z m243 12 c0 -8
-4 -15 -9 -15 -13 0 -22 16 -14 24 11 11 23 6 23 -9z m-420 -4 c0 -6 -4 -13
-10 -16 -5 -3 -10 1 -10 9 0 9 5 16 10 16 6 0 10 -4 10 -9z m-90 -21 c0 -5 -4
-10 -10 -10 -5 0 -10 5 -10 10 0 6 5 10 10 10 6 0 10 -4 10 -10z m-1736 -9 c3
-5 -1 -14 -9 -21 -13 -10 -15 -9 -15 9 0 21 14 28 24 12z m-154 -11 c0 -12
-111 -12 -185 0 -41 6 -28 8 68 9 72 0 117 -3 117 -9z m1580 -2 c-1 -7 -7 -26
-15 -43 l-13 -30 -1 27 c-1 14 2 33 5 42 7 19 24 21 24 4z m527 -50 c-2 -13
-4 -3 -4 22 0 25 2 35 4 23 2 -13 2 -33 0 -45z m343 52 c0 -5 -15 -10 -32 -10
-25 0 -29 3 -18 10 20 13 50 13 50 0z m418 -2 c9 -9 12 -9 12 0 0 7 5 12 10
12 6 0 10 -11 10 -25 0 -23 2 -24 20 -15 18 10 20 8 20 -20 0 -26 -5 -33 -32
-42 -30 -11 -54 -13 -100 -9 -9 0 -19 9 -21 19 -3 9 -5 -2 -6 -25 -1 -36 -3
-40 -21 -36 -16 4 -20 14 -20 45 0 36 -2 39 -27 36 -20 -2 -28 2 -28 12 0 10
8 14 25 12 14 -1 39 -3 55 -5 23 -1 31 -8 33 -24 4 -24 16 -30 27 -13 4 7 12
7 25 0 27 -14 30 -13 30 15 0 18 -5 25 -19 25 -17 0 -31 18 -31 41 0 13 24 11
38 -3z m-3843 -38 c-5 -8 -11 -8 -17 -2 -6 6 -7 16 -3 22 5 8 11 8 17 2 6 -6
7 -16 3 -22z m85 4 c0 -8 -4 -12 -10 -9 -5 3 -10 13 -10 21 0 8 5 12 10 9 6
-3 10 -13 10 -21z m3914 10 c17 -6 22 -24 8 -24 -5 0 -17 7 -28 15 -19 15 -8
20 20 9z m-3261 -18 c4 -11 -4 -16 -31 -18 -50 -4 -122 2 -122 11 0 4 15 5 34
3 18 -2 37 1 40 7 10 16 73 14 79 -3z m2314 -8 c-3 -8 -6 -5 -6 6 -1 11 2 17
5 13 3 -3 4 -12 1 -19z m-2882 2 c4 -6 -10 -10 -35 -10 -25 0 -39 4 -35 10 3
6 19 10 35 10 16 0 32 -4 35 -10z m2832 -12 c-3 -8 -6 -5 -6 6 -1 11 2 17 5
13 3 -3 4 -12 1 -19z m318 2 c3 -5 18 -10 33 -10 l26 0 -21 -21 -21 -21 -21
21 c-22 22 -27 41 -12 41 6 0 13 -4 16 -10z m-2521 -15 c-4 -8 -7 -15 -9 -15
-2 0 -5 7 -9 15 -3 9 0 15 9 15 9 0 12 -6 9 -15z m-364 -9 c0 -8 -4 -18 -10
-21 -5 -3 -10 -4 -10 -1 0 2 -3 11 -6 20 -4 11 -1 16 10 16 9 0 16 -6 16 -14z
m467 0 c4 -8 24 -16 43 -19 19 -2 3 -5 -36 -5 -51 -2 -75 2 -83 12 -9 11 -9
15 1 19 26 11 67 7 75 -7z m553 -23 c0 -43 -5 -41 -13 5 -4 18 -2 32 3 32 6 0
10 -16 10 -37z m687 -10 c-3 -10 -5 -2 -5 17 0 19 2 27 5 18 2 -10 2 -26 0
-35z m200 41 c-3 -3 -12 -4 -19 -1 -8 3 -5 6 6 6 11 1 17 -2 13 -5z m403 -9
c-7 -8 -17 -12 -22 -9 -6 4 -5 10 3 15 22 14 33 10 19 -6z m201 -12 c-5 -16
-14 -27 -21 -25 -7 2 -21 -5 -31 -14 -18 -16 -19 -16 -19 0 0 9 5 14 10 11 6
-3 10 5 10 19 0 18 4 24 15 20 8 -4 15 -1 15 5 0 6 6 11 14 11 11 0 12 -7 7
-27z m-1891 -3 c0 -5 -4 -10 -10 -10 -5 0 -10 5 -10 10 0 6 5 10 10 10 6 0 10
-4 10 -10z m1230 -4 c0 -8 -4 -18 -10 -21 -5 -3 -10 3 -10 14 0 12 5 21 10 21
6 0 10 -6 10 -14z m-1910 -17 c0 -5 -7 -9 -15 -9 -8 0 -15 7 -15 15 0 9 6 12
15 9 8 -4 15 -10 15 -15z m430 -5 c0 -10 12 -14 45 -14 33 0 45 -4 45 -15 0
-9 -9 -15 -25 -15 -17 0 -28 -7 -34 -22 l-8 -22 -5 22 c-8 27 -24 28 -31 2 -4
-17 -8 -18 -36 -7 -29 11 -45 47 -21 47 6 0 10 -4 10 -8 0 -5 14 -7 30 -4 27
4 29 6 14 17 -11 7 -15 19 -11 29 8 19 27 12 27 -10z m1561 -1 c-12 -20 -14
-14 -5 12 4 9 9 14 11 11 3 -2 0 -13 -6 -23z m277 20 c-10 -2 -28 -2 -40 0
-13 2 -5 4 17 4 22 1 32 -1 23 -4z m-1440 -20 c-10 -2 -28 -2 -40 0 -13 2 -5
4 17 4 22 1 32 -1 23 -4z m2592 -14 c0 -5 -4 -9 -10 -9 -5 0 -10 7 -10 16 0 8
5 12 10 9 6 -3 10 -10 10 -16z m-3375 1 c-3 -5 -12 -10 -18 -10 -7 0 -25 -11
-41 -25 -34 -29 -40 -27 -27 8 8 20 18 27 48 30 21 2 39 4 41 5 2 1 0 -2 -3
-8z m1928 -4 c3 -8 3 -16 0 -19 -9 -10 -33 5 -33 19 0 18 26 18 33 0z m927 4
c0 -5 -4 -10 -9 -10 -5 0 -13 -37 -19 -82 l-9 -83 -2 81 c0 51 3 84 11 92 15
15 28 16 28 2z m-2065 -10 c-3 -5 -22 -10 -41 -10 -21 0 -33 4 -29 10 3 6 22
10 41 10 21 0 33 -4 29 -10z m1745 0 c0 -5 -4 -10 -10 -10 -5 0 -10 5 -10 10
0 6 5 10 10 10 6 0 10 -4 10 -10z m-2500 -4 c0 -3 -4 -8 -10 -11 -5 -3 -10 -1
-10 4 0 6 5 11 10 11 6 0 10 -2 10 -4z m868 -73 c0 -43 -3 -62 -5 -43 -3 19
-8 38 -12 42 -10 11 -1 78 10 78 5 0 8 -35 7 -77z m237 67 c14 -6 4 -9 -37 -9
-33 -1 -58 3 -58 9 0 12 67 12 95 0z m85 0 c0 -5 -2 -10 -4 -10 -3 0 -8 5 -11
10 -3 6 -1 10 4 10 6 0 11 -4 11 -10z m534 -2 c-3 -4 -23 -8 -45 -8 -22 0 -38
3 -35 8 2 4 22 7 44 7 23 1 38 -3 36 -7z m-1019 -58 c9 0 12 6 9 15 -4 10 0
15 15 15 12 0 21 -6 20 -12 -1 -7 1 -26 6 -41 9 -33 1 -42 -41 -50 -29 -6 -32
-4 -36 24 -5 36 4 95 10 67 2 -10 10 -18 17 -18z m492 -2 c-3 -7 -5 -2 -5 12
0 14 2 19 5 13 2 -7 2 -19 0 -25z m1736 -25 c-7 -74 -13 -80 -13 -15 0 29 -4
52 -10 52 -5 0 -10 5 -10 10 0 6 9 10 19 10 18 0 19 -5 14 -57z m-1628 17 c-4
-22 -1 -32 11 -37 13 -5 13 -7 2 -14 -33 -21 -45 11 -23 64 11 26 16 20 10
-13z m491 -5 c1 -35 -14 -71 -26 -59 -4 5 -10 28 -13 52 -5 40 -4 43 16 40 17
-2 22 -10 23 -33z m-1419 -1 c-3 -3 -12 -4 -19 -1 -8 3 -5 6 6 6 11 1 17 -2
13 -5z m523 -29 c0 -19 -4 -35 -10 -35 -5 0 -10 16 -10 35 0 19 5 35 10 35 6
0 10 -16 10 -35z m547 13 c-3 -8 -6 -5 -6 6 -1 11 2 17 5 13 3 -3 4 -12 1 -19z
m145 10 c-9 -9 -15 -9 -24 0 -9 9 -7 12 12 12 19 0 21 -3 12 -12z m75 -40 c-2
-13 -4 -5 -4 17 -1 22 1 32 4 23 2 -10 2 -28 0 -40z m513 42 c0 -5 -2 -10 -4
-10 -3 0 -8 5 -11 10 -3 6 -1 10 4 10 6 0 11 -4 11 -10z m240 0 c0 -5 -2 -10
-4 -10 -3 0 -8 5 -11 10 -3 6 -1 10 4 10 6 0 11 -4 11 -10z m468 -91 c-17 -11
-24 9 -9 24 6 6 12 27 13 47 1 27 3 23 5 -14 3 -33 0 -52 -9 -57z m-2607 58
c-4 -12 -6 -28 -4 -34 5 -14 -15 -17 -41 -7 -14 5 -12 11 11 39 31 35 47 37
34 2z m1359 2 c0 -12 -5 -16 -15 -13 -8 3 -22 -1 -30 -10 -9 -9 -21 -16 -26
-16 -15 0 -10 20 6 26 8 4 15 12 15 19 0 7 6 15 13 18 20 7 37 -4 37 -24z
m-446 -2 c0 -9 -1 -55 -2 -102 -2 -90 -22 -122 -22 -35 0 28 -4 50 -10 50 -9
0 -13 -38 -14 -137 -1 -17 -4 -35 -8 -39 -5 -4 -8 -2 -8 5 0 7 -4 10 -9 6 -11
-6 -25 93 -18 121 3 11 6 1 7 -21 1 -22 6 -49 11 -60 5 -13 7 16 5 84 -4 101
-3 104 22 128 28 26 47 26 46 0z m1003 1 c-3 -8 -6 -5 -6 6 -1 11 2 17 5 13 3
-3 4 -12 1 -19z m-2198 -10 c9 -15 8 -22 -4 -34 -8 -9 -15 -24 -15 -35 0 -11
-7 -19 -16 -19 -11 0 -15 6 -11 19 3 13 -3 23 -18 31 -26 14 -45 7 -45 -16 0
-8 -5 -12 -10 -9 -7 4 -8 11 -2 18 5 7 8 23 7 37 -3 24 0 25 50 26 41 0 55 -4
64 -18z m371 12 c-12 -8 -12 -10 -1 -10 11 0 11 -3 1 -15 -18 -22 -70 -20 -69
3 0 10 3 12 6 5 7 -18 23 -16 23 1 0 8 8 17 18 19 30 8 37 7 22 -3z m1790 -1
c0 7 4 10 10 6 5 -3 7 -12 4 -19 -7 -18 -44 -8 -44 11 0 13 3 13 15 3 11 -9
15 -9 15 -1z m-750 -32 c0 -5 -4 -5 -10 -2 -5 3 -10 14 -10 23 0 15 2 15 10 2
5 -8 10 -19 10 -23z m17 11 c-3 -8 -6 -5 -6 6 -1 11 2 17 5 13 3 -3 4 -12 1
-19z m-1227 -1 c0 -8 -18 -12 -53 -11 -82 1 -97 3 -97 13 0 4 34 8 75 9 51 0
75 -3 75 -11z m1280 2 c0 -5 4 -8 8 -5 5 3 7 -18 4 -47 -3 -29 -8 -53 -13 -55
-4 -2 -6 -9 -3 -16 3 -7 -2 -19 -10 -26 -9 -7 -14 -16 -11 -20 3 -5 1 -11 -5
-15 -5 -3 -7 -19 -3 -35 3 -19 1 -30 -6 -30 -6 0 -11 16 -11 35 0 19 -5 35
-11 35 -8 0 -8 4 -2 13 19 23 23 63 8 83 -8 10 -14 28 -14 39 0 19 0 19 10 2
14 -24 39 -5 39 29 0 13 5 24 10 24 6 0 10 -5 10 -11z m1757 -11 c-3 -8 -6 -5
-6 6 -1 11 2 17 5 13 3 -3 4 -12 1 -19z m-2737 8 c0 -8 -51 -13 -56 -5 -3 5 9
9 25 9 17 0 31 -2 31 -4z m810 -33 c0 -15 2 -16 10 -3 15 24 21 6 7 -23 -15
-33 -26 -38 -71 -30 -33 5 -36 8 -36 39 0 34 1 34 45 34 36 0 45 -3 45 -17z
m657 11 c-3 -3 -12 -4 -19 -1 -8 3 -5 6 6 6 11 1 17 -2 13 -5z m-2372 -34 c-3
-5 -10 -10 -16 -10 -5 0 -9 5 -9 10 0 6 7 10 16 10 8 0 12 -4 9 -10z m2205
-10 c0 -5 -9 -10 -20 -10 -11 0 -20 5 -20 10 0 6 9 10 20 10 11 0 20 -4 20
-10z m-1452 -7 c-10 -2 -28 -2 -40 0 -13 2 -5 4 17 4 22 1 32 -1 23 -4z m1622
-7 c0 -18 -26 -40 -34 -27 -9 14 4 41 20 41 8 0 14 -6 14 -14z m149 -58 c-1
-24 2 -52 6 -62 6 -14 5 -17 -3 -12 -7 4 -12 2 -12 -6 0 -7 -5 -5 -12 6 -8 14
-8 24 1 37 6 11 11 32 11 49 0 16 2 30 5 30 3 0 5 -19 4 -42z m118 -5 c-3 -10
-5 -2 -5 17 0 19 2 27 5 18 2 -10 2 -26 0 -35z m20 -5 c-2 -13 -4 -5 -4 17 -1
22 1 32 4 23 2 -10 2 -28 0 -40z m133 17 c0 -19 -4 -35 -10 -35 -5 0 -10 16
-10 35 0 19 5 35 10 35 6 0 10 -16 10 -35z m17 -17 c-2 -13 -4 -5 -4 17 -1 22
1 32 4 23 2 -10 2 -28 0 -40z m-2047 12 c0 -5 -2 -10 -4 -10 -3 0 -8 5 -11 10
-3 6 -1 10 4 10 6 0 11 -4 11 -10z m550 0 c0 -5 -4 -10 -10 -10 -5 0 -10 5
-10 10 0 6 5 10 10 10 6 0 10 -4 10 -10z m1855 0 c-3 -5 -15 -10 -25 -10 -10
0 -22 5 -25 10 -4 6 7 10 25 10 18 0 29 -4 25 -10z m-3219 -25 c0 -14 -4 -25
-8 -25 -9 0 -16 23 -10 38 8 21 20 13 18 -13z m1192 14 c-2 -6 -8 -10 -13 -10
-5 0 -11 4 -13 10 -2 6 4 11 13 11 9 0 15 -5 13 -11z m591 -23 c9 -11 9 -16 0
-22 -7 -4 -15 -2 -17 4 -2 7 -10 12 -17 12 -8 0 -17 5 -20 10 -10 16 41 12 54
-4z m-92 -12 c-3 -3 -12 -4 -19 -1 -8 3 -5 6 6 6 11 1 17 -2 13 -5z m-397 -14
c0 -5 -5 -10 -11 -10 -5 0 -7 5 -4 10 3 6 8 10 11 10 2 0 4 -4 4 -10z m-1310
-20 c0 -5 -9 -10 -20 -10 -11 0 -20 5 -20 10 0 6 9 10 20 10 11 0 20 -4 20
-10z m1674 -15 c-4 -8 -8 -15 -10 -15 -2 0 -4 7 -4 15 0 8 4 15 10 15 5 0 7
-7 4 -15z m16 -45 c0 -5 -12 -10 -27 -9 -25 0 -26 1 -8 9 27 12 35 12 35 0z
m1124 -6 c13 -5 14 -9 5 -20 -17 -21 -39 -17 -39 6 0 21 8 24 34 14z m-2079
-29 c0 -12 -10 -21 -29 -26 -40 -11 -44 -4 -16 26 26 28 45 28 45 0z m812 -12
c-3 -10 -5 -4 -5 12 0 17 2 24 5 18 2 -7 2 -21 0 -30z m561 -8 c7 -3 11 -20
11 -42 -1 -23 -3 -29 -6 -15 -4 18 -11 22 -44 22 -24 0 -39 -5 -39 -12 0 -9
-3 -9 -12 0 -7 7 -22 12 -35 12 -24 0 -27 7 -17 35 5 13 17 15 68 10 33 -4 67
-8 74 -10z m689 -62 c-2 -16 -4 -5 -4 22 0 28 2 40 4 28 2 -13 2 -35 0 -50z
m-1667 53 c0 -11 -19 -15 -25 -6 -3 5 1 10 9 10 9 0 16 -2 16 -4z m327 -2 c-3
-3 -12 -4 -19 -1 -8 3 -5 6 6 6 11 1 17 -2 13 -5z m797 0 c17 -7 22 -34 6 -34
-5 0 -19 9 -30 20 -21 21 -10 27 24 14z m1171 -62 c-11 -11 -22 11 -17 35 l5
28 8 -29 c5 -17 7 -32 4 -34z m-608 6 c-3 -7 -5 -2 -5 12 0 14 2 19 5 13 2 -7
2 -19 0 -25z m-1047 18 c0 -3 -4 -8 -10 -11 -5 -3 -10 -1 -10 4 0 6 5 11 10
11 6 0 10 -2 10 -4z m150 -6 c0 -13 -11 -13 -30 0 -12 8 -11 10 8 10 12 0 22
-4 22 -10z m1003 -11 c7 0 3 -4 -8 -9 -29 -13 -35 -12 -35 6 0 11 5 14 16 10
9 -3 21 -6 27 -7z m-93 -60 c0 -11 -27 -12 -34 0 -3 4 -3 11 0 14 8 8 34 -3
34 -14z m-2630 -22 c0 -18 -2 -19 -10 -7 -13 20 -13 43 0 35 6 -3 10 -16 10
-28z m1580 13 c12 -8 11 -10 -7 -10 -12 0 -25 5 -28 10 -8 13 15 13 35 0z
m917 4 c-3 -3 -12 -4 -19 -1 -8 3 -5 6 6 6 11 1 17 -2 13 -5z m813 -20 c0 -8
-5 -12 -10 -9 -6 4 -8 11 -5 16 9 14 15 11 15 -7z m-3355 -24 c3 -5 -1 -10 -9
-10 -9 0 -16 5 -16 10 0 6 4 10 9 10 6 0 13 -4 16 -10z m-155 -156 c0 -17 -12
-18 -28 -2 -18 18 -15 27 8 21 11 -3 20 -12 20 -19z m610 -94 c0 -5 -4 -10 -9
-10 -6 0 -13 5 -16 10 -3 6 1 10 9 10 9 0 16 -4 16 -10z m-243 -447 c-3 -10
-5 -4 -5 12 0 17 2 24 5 18 2 -7 2 -21 0 -30z m334 -46 c-8 -8 -11 -5 -11 9 0
27 14 41 18 19 2 -9 -1 -22 -7 -28z m-2970 -344 c8 -10 19 -27 25 -38 11 -19
8 -20 -55 -18 -57 1 -66 4 -67 20 -1 45 69 71 97 36z m149 -18 c13 -34 3 -60
-17 -43 -12 10 -17 9 -24 -5 -11 -18 -39 -12 -39 9 0 8 -7 14 -15 14 -12 0
-13 4 -5 19 9 17 25 23 78 30 7 0 17 -10 22 -24z m139 -29 c12 -14 1 -28 -29
-38 -8 -3 4 -8 28 -12 49 -9 56 -23 10 -24 -61 -2 -83 31 -49 72 16 20 25 20
40 2z m241 4 c0 -5 -12 -10 -26 -10 -14 0 -23 4 -19 10 3 6 15 10 26 10 10 0
19 -4 19 -10z m-60 -15 c0 -8 -4 -15 -10 -15 -5 0 -7 7 -4 15 4 8 8 15 10 15
2 0 4 -7 4 -15z m100 5 c0 -5 -4 -10 -9 -10 -6 0 -13 5 -16 10 -3 6 1 10 9 10
9 0 16 -4 16 -10z m-183 -36 c-3 -3 -12 -4 -19 -1 -8 3 -5 6 6 6 11 1 17 -2
13 -5z m2433 -4 c0 -5 -9 -10 -19 -10 -11 0 -23 5 -26 10 -4 6 5 10 19 10 14
0 26 -4 26 -10z m-2430 -30 c0 -13 -7 -20 -20 -20 -25 0 -26 16 -2 29 23 14
22 14 22 -9z m786 -12 c8 -13 -17 -40 -32 -34 -7 3 -16 1 -19 -5 -4 -5 -11 -7
-16 -4 -14 9 -11 -11 4 -24 11 -9 14 -30 8 -61 -1 -3 -5 0 -9 7 -13 21 -78 43
-89 32 -7 -7 -21 -8 -34 -3 -28 9 -69 6 -84 -6 -6 -5 -17 -5 -24 -1 -18 12 14
56 49 70 14 5 34 13 45 17 65 25 188 33 201 12z m106 -8 c-3 -31 -3 -31 -40
-24 -37 8 -42 31 -9 44 35 14 52 7 49 -20z m1735 4 c-3 -3 -12 -4 -19 -1 -8 3
-5 6 6 6 11 1 17 -2 13 -5z m-3180 -66 c-3 -7 -5 -2 -5 12 0 14 2 19 5 13 2
-7 2 -19 0 -25z m74 -11 c-6 -6 -11 -19 -11 -29 0 -15 -5 -17 -27 -12 -38 9
-50 22 -30 30 9 3 17 15 17 26 0 15 5 18 19 13 11 -3 23 0 27 7 6 10 9 8 12
-6 2 -10 -1 -23 -7 -29z m2144 13 c40 -1 85 -34 68 -51 -8 -8 -9 -18 -3 -30
13 -23 2 -49 -20 -49 -19 0 -34 -25 -24 -41 3 -5 16 -6 30 -3 18 5 24 2 24
-11 0 -12 -5 -15 -19 -10 -29 9 -35 -11 -11 -35 28 -28 18 -57 -23 -68 -18 -5
-35 -7 -39 -6 -3 2 -9 26 -13 54 -5 37 -3 55 9 72 21 30 20 38 -8 73 -23 28
-26 29 -38 13 -17 -22 -190 -48 -196 -30 -4 14 -32 16 -32 4 0 -15 -46 -31
-61 -21 -10 6 -6 9 14 9 16 0 26 4 22 10 -3 6 -24 10 -45 10 -21 0 -42 -4 -45
-10 -3 -5 -1 -10 4 -10 6 0 11 -3 11 -7 0 -10 -51 -34 -59 -28 -12 7 -111 7
-199 0 -73 -6 -85 -4 -96 11 -13 17 -42 11 -31 -7 4 -5 -1 -9 -9 -9 -8 0 -20
-8 -26 -17 -9 -15 -10 -14 -4 7 3 14 11 31 17 38 14 17 0 29 -44 37 -33 6 -37
5 -43 -20 -4 -16 -2 -33 5 -42 33 -38 12 -63 -48 -60 -27 1 -28 5 -8 31 8 11
15 40 15 65 0 52 12 76 31 69 8 -3 56 1 107 8 93 12 162 9 162 -7 0 -5 -7 -9
-16 -9 -8 0 -12 -4 -9 -10 7 -11 54 -13 79 -4 9 3 14 9 12 13 -8 12 144 3 159
-9 9 -7 18 -11 20 -8 8 7 -6 38 -16 38 -4 0 -6 7 -3 15 4 8 10 15 15 15 5 0 9
-7 9 -15 0 -23 70 -21 70 3 1 15 2 15 16 -3 14 -19 16 -19 25 -3 7 14 15 15
34 8 26 -10 85 -8 104 4 17 11 51 -3 51 -22 1 -15 3 -14 15 3 13 17 13 20 0
28 -23 13 -18 30 8 23 12 -3 36 -6 52 -6z m-1265 -10 c0 -6 6 -10 13 -9 32 4
40 -1 27 -16 -7 -8 -17 -12 -24 -8 -6 4 -19 6 -28 5 -18 -3 -25 18 -11 31 10
10 23 8 23 -3z m-703 -23 c-2 -7 -12 -12 -23 -12 -16 0 -18 -6 -16 -42 3 -34
0 -43 -13 -43 -9 0 -13 5 -10 10 4 6 2 17 -4 24 -20 24 -8 60 24 72 33 12 48
9 42 -9z m-367 -22 c-11 -10 -19 -11 -30 -4 -13 8 -12 11 4 24 26 19 47 2 26
-20z m85 15 c3 -5 -3 -10 -14 -10 -12 0 -21 5 -21 10 0 6 6 10 14 10 8 0 18
-4 21 -10z m345 0 c0 -5 -7 -10 -15 -10 -8 0 -15 5 -15 10 0 6 7 10 15 10 8 0
15 -4 15 -10z m39 -30 c-6 -5 -19 -6 -27 -2 -13 4 -12 7 4 12 23 9 41 1 23
-10z m371 -40 c0 -5 -4 -10 -10 -10 -5 0 -10 5 -10 10 0 6 5 10 10 10 6 0 10
-4 10 -10z m-650 -19 c0 -21 -19 -31 -56 -31 -33 0 -30 24 4 37 41 16 52 15
52 -6z m660 -22 c0 -5 -4 -9 -10 -9 -5 0 -10 7 -10 16 0 8 5 12 10 9 6 -3 10
-10 10 -16z m5750 -288 c0 -6 -4 -13 -10 -16 -5 -3 -10 1 -10 9 0 9 5 16 10
16 6 0 10 -4 10 -9z m-6749 -44 c-13 -13 -26 -3 -16 12 3 6 11 8 17 5 6 -4 6
-10 -1 -17z m2009 -192 c0 -8 7 -15 15 -15 8 0 15 -5 15 -10 0 -6 -11 -8 -27
-4 -35 8 -47 19 -39 33 10 16 36 13 36 -4z m-937 -12 c-7 -2 -13 -11 -13 -19
0 -9 -5 -12 -10 -9 -13 8 6 35 24 34 7 0 6 -2 -1 -6z m44 -33 c0 -26 -4 -30
-29 -30 -33 0 -36 10 -8 28 11 7 17 18 14 27 -4 10 -2 13 8 10 8 -3 15 -19 15
-35z m73 10 c0 -5 -4 -10 -10 -10 -5 0 -10 5 -10 10 0 6 5 10 10 10 6 0 10 -4
10 -10z m1040 0 c0 -5 -4 -10 -10 -10 -5 0 -10 5 -10 10 0 6 5 10 10 10 6 0
10 -4 10 -10z m21 -43 c-8 -8 -11 -5 -11 9 0 27 14 41 18 19 2 -9 -1 -22 -7
-28z m-550 -39 c-24 -28 -48 -22 -56 13 -10 43 11 54 45 26 23 -20 24 -23 11
-39z m-155 37 c14 -13 12 -15 -10 -13 -14 1 -26 8 -26 15 0 17 18 16 36 -2z
m5344 -5 c0 -5 -7 -10 -16 -10 -8 0 -12 5 -9 10 3 6 10 10 16 10 5 0 9 -4 9
-10z m-5087 -14 c26 -20 21 -36 -13 -36 -22 0 -28 4 -24 15 4 10 0 15 -12 15
-16 0 -17 2 -4 10 20 13 32 12 53 -4z m5007 -6 c0 -5 -7 -10 -15 -10 -8 0 -15
5 -15 10 0 6 7 10 15 10 8 0 15 -4 15 -10z m-4890 -40 c0 -5 -4 -10 -10 -10
-5 0 -10 5 -10 10 0 6 5 10 10 10 6 0 10 -4 10 -10z m273 -25 c23 -31 16 -42
-30 -51 -30 -6 -39 -3 -53 15 -14 19 -23 22 -62 18 -34 -4 -48 -2 -52 8 -5 15
27 21 164 33 8 1 23 -10 33 -23z m47 16 c0 -19 -22 -23 -38 -7 -15 15 -14 16
11 16 15 0 27 -4 27 -9z m-779 -20 c-11 -7 -10 -13 4 -35 20 -31 54 -34 77 -7
13 15 27 18 79 16 35 -1 66 -4 69 -5 3 -1 12 -3 20 -4 8 0 15 -8 15 -16 0 -15
27 -18 89 -9 17 2 31 -1 33 -8 3 -9 -6 -13 -26 -13 -30 0 -31 -2 -31 -42 0
-23 -3 -38 -7 -34 -4 4 -8 17 -8 29 0 18 -7 23 -37 25 -37 3 -38 3 -38 -32 0
-35 -12 -47 -25 -26 -3 6 -20 10 -36 10 -21 0 -32 -6 -38 -22 -11 -28 -66 -78
-86 -78 -8 0 -19 9 -25 19 -7 14 -26 22 -67 27 -32 4 -62 12 -68 19 -13 16
-58 27 -117 29 -52 1 -94 26 -44 26 25 0 28 3 24 25 -4 20 -1 26 16 29 31 6
66 3 66 -6 0 -4 9 -8 21 -8 13 0 23 10 31 30 7 22 19 33 39 37 15 3 30 11 33
19 3 8 16 14 28 14 17 0 19 -3 9 -9z m-346 -90 c3 -5 1 -12 -5 -16 -5 -3 -10
1 -10 9 0 18 6 21 15 7z m45 -52 c0 -5 -5 -9 -11 -9 -6 0 -9 -7 -5 -15 7 -19
-5 -19 -30 0 -10 8 -27 15 -36 15 -10 0 -18 6 -18 13 0 8 15 11 50 9 27 -2 50
-8 50 -13z m738 -38 c41 -1 42 -2 42 -36 0 -34 -1 -35 -40 -35 -22 0 -40 4
-40 10 0 5 -26 10 -57 12 -34 2 -58 8 -61 16 -2 7 5 12 17 12 12 0 21 6 21 13
0 12 7 12 118 8z m-198 -14 c0 -7 -6 -19 -12 -25 -10 -10 -10 -15 2 -22 8 -5
11 -13 6 -17 -5 -4 -11 -2 -13 5 -3 6 -11 12 -18 12 -7 0 -15 6 -18 13 -3 9
-7 9 -20 -2 -15 -12 -17 -11 -17 12 0 22 5 26 38 30 20 2 40 4 45 5 4 1 7 -4
7 -11z m420 -8 c0 -6 -4 -7 -10 -4 -5 3 -10 11 -10 16 0 6 5 7 10 4 6 -3 10
-11 10 -16z m-1140 -139 c0 -5 -2 -10 -4 -10 -3 0 -8 5 -11 10 -3 6 -1 10 4
10 6 0 11 -4 11 -10z m440 -9 c0 -11 3 -26 6 -35 8 -20 -12 -21 -32 -2 -24 25
-15 52 19 55 4 1 7 -8 7 -18z m125 -21 c0 -20 -75 -35 -87 -18 -19 30 -9 39
40 36 33 -2 47 -7 47 -18z m58 -39 c14 -27 13 -31 -3 -46 -17 -15 -20 -15 -43
0 -24 15 -25 15 -30 -12 -7 -37 1 -48 22 -29 16 15 19 15 32 -1 8 -10 20 -29
27 -41 12 -22 12 -23 -6 -18 -13 4 -22 1 -26 -9 -8 -22 -46 -19 -46 4 0 12 -9
20 -29 24 -20 4 -31 13 -34 29 -4 20 -4 20 -6 -4 -1 -26 -4 -28 -40 -28 -22 0
-41 4 -43 10 -1 5 -20 11 -40 12 -23 2 -38 8 -38 16 0 7 4 11 9 8 5 -3 30 -3
56 1 39 5 49 10 56 33 8 22 14 26 40 22 24 -4 31 0 36 17 6 22 43 30 43 9 0
-7 10 -2 22 10 12 12 23 22 24 22 2 0 9 -13 17 -29z m5127 -2 c0 -18 -4 -20
-27 -14 -15 3 -31 12 -35 18 -4 6 -10 8 -15 4 -4 -4 -2 -16 4 -26 13 -21 8
-31 -18 -31 -21 0 -43 35 -35 56 4 10 23 14 66 14 54 0 60 -2 60 -21z m-180 7
c0 -3 -4 -8 -10 -11 -5 -3 -10 -1 -10 4 0 6 5 11 10 11 6 0 10 -2 10 -4z m40
-6 c0 -5 -4 -10 -10 -10 -5 0 -10 5 -10 10 0 6 5 10 10 10 6 0 10 -4 10 -10z
m-4717 -37 c-6 -14 -8 -14 -14 3 -12 30 -10 37 5 24 8 -6 12 -19 9 -27z
m-1408 -2 c12 -21 -28 -26 -162 -22 -81 2 -43 20 43 19 47 0 88 3 91 6 9 9 21
7 28 -3z m1468 -17 c9 -10 -4 -34 -19 -34 -8 0 -14 6 -14 13 0 22 19 35 33 21z
m4517 -109 c0 -8 -9 -15 -20 -15 -11 0 -20 7 -20 15 0 8 9 15 20 15 11 0 20
-7 20 -15z m-586 -44 c-9 -36 -21 -48 -36 -33 -9 9 -9 12 1 12 11 0 11 3 1 15
-10 12 -10 18 0 29 19 23 41 8 34 -23z m-394 -22 c0 -5 -25 -9 -55 -9 -30 0
-55 4 -55 9 0 5 20 6 45 3 31 -3 45 -1 45 7 0 7 5 9 10 6 6 -3 10 -10 10 -16z
m165 1 c-3 -5 -11 -10 -16 -10 -6 0 -7 5 -4 10 3 6 11 10 16 10 6 0 7 -4 4
-10z m135 0 c11 -7 1 -10 -35 -10 -36 0 -46 3 -35 10 8 5 24 10 35 10 11 0 27
-5 35 -10z m-160 -50 c0 -5 -5 -10 -11 -10 -5 0 -7 5 -4 10 3 6 8 10 11 10 2
0 4 -4 4 -10z"/>
<path d="M6443 6217 c-31 -11 -41 -26 -27 -40 4 -4 15 3 25 14 10 12 20 16 24
9 7 -12 45 -14 45 -2 0 10 -22 33 -29 31 -4 -1 -21 -7 -38 -12z"/>
<path d="M1920 6190 c0 -5 5 -10 10 -10 6 0 10 5 10 10 0 6 -4 10 -10 10 -5 0
-10 -4 -10 -10z"/>
<path d="M5640 5473 c0 -21 5 -45 10 -53 7 -11 10 0 10 38 0 28 -4 52 -10 52
-5 0 -10 -17 -10 -37z"/>
<path d="M6595 5360 c-4 -6 5 -10 19 -10 14 0 26 5 26 10 0 6 -9 10 -19 10
-11 0 -23 -4 -26 -10z"/>
<path d="M6510 5250 c0 -16 7 -20 30 -20 23 0 30 4 30 20 0 16 -7 20 -30 20
-23 0 -30 -4 -30 -20z"/>
<path d="M6313 5244 c-3 -8 -1 -20 6 -27 8 -8 11 -4 11 16 0 30 -7 35 -17 11z"/>
<path d="M6504 5205 c8 -8 26 -15 40 -15 16 0 26 6 26 15 0 11 -11 15 -41 15
-36 0 -39 -2 -25 -15z"/>
<path d="M6330 5180 c0 -11 4 -20 9 -20 11 0 22 26 14 34 -12 12 -23 5 -23
-14z"/>
<path d="M4020 4685 c0 -8 7 -15 15 -15 8 0 15 7 15 15 0 8 -7 15 -15 15 -8 0
-15 -7 -15 -15z"/>
<path d="M4481 4634 c-12 -14 -11 -16 4 -12 10 1 20 9 23 16 5 17 -10 15 -27
-4z"/>
<path d="M3280 4650 l-25 -8 28 -1 c15 -1 27 4 27 9 0 6 -1 10 -2 9 -2 -1 -14
-5 -28 -9z"/>
<path d="M4790 4601 c0 -6 5 -13 10 -16 6 -3 10 1 10 9 0 9 -4 16 -10 16 -5 0
-10 -4 -10 -9z"/>
<path d="M4948 4303 c7 -3 16 -2 19 1 4 3 -2 6 -13 5 -11 0 -14 -3 -6 -6z"/>
<path d="M2615 2831 c-6 -11 9 -23 19 -14 9 9 7 23 -3 23 -6 0 -12 -4 -16 -9z"/>
<path d="M2300 2770 c0 -5 5 -10 11 -10 5 0 7 5 4 10 -3 6 -8 10 -11 10 -2 0
-4 -4 -4 -10z"/>
<path d="M2108 2703 c6 -2 18 -2 25 0 6 3 1 5 -13 5 -14 0 -19 -2 -12 -5z"/>
<path d="M1558 1923 c7 -3 16 -2 19 1 4 3 -2 6 -13 5 -11 0 -14 -3 -6 -6z"/>
<path d="M1690 1910 c0 -5 5 -10 10 -10 6 0 10 5 10 10 0 6 -4 10 -10 10 -5 0
-10 -4 -10 -10z"/>
<path d="M1516 1872 c-2 -4 4 -13 14 -19 15 -10 17 -9 13 8 -5 20 -18 25 -27
11z"/>
<path d="M1600 1851 c0 -5 7 -11 15 -15 9 -3 15 0 15 9 0 8 -7 15 -15 15 -8 0
-15 -4 -15 -9z"/>
<path d="M1560 1820 c0 -5 5 -10 11 -10 5 0 7 5 4 10 -3 6 -8 10 -11 10 -2 0
-4 -4 -4 -10z"/>
<path d="M1958 1803 c7 -3 16 -2 19 1 4 3 -2 6 -13 5 -11 0 -14 -3 -6 -6z"/>
<path d="M1620 1630 c0 -5 5 -10 11 -10 5 0 7 5 4 10 -3 6 -8 10 -11 10 -2 0
-4 -4 -4 -10z"/>
<path d="M3543 6393 c15 -2 39 -2 55 0 15 2 2 4 -28 4 -30 0 -43 -2 -27 -4z"/>
<path d="M5908 6393 c23 -2 61 -2 85 0 23 2 4 4 -43 4 -47 0 -66 -2 -42 -4z"/>
<path d="M6065 6391 c19 -8 19 -8 -2 -15 -19 -6 -21 -11 -13 -27 18 -32 40
-23 40 16 0 30 -3 35 -22 34 -22 0 -22 -1 -3 -8z"/>
<path d="M6235 6390 c-11 -5 -14 -9 -7 -9 7 -1 10 -6 7 -11 -4 -7 -24 -8 -51
-4 -42 6 -44 5 -44 -19 0 -18 7 -27 26 -31 15 -4 29 -5 32 -1 3 3 -3 5 -12 5
-10 0 -16 6 -13 13 2 6 20 12 40 12 31 0 37 3 37 22 0 19 6 22 48 26 l47 3
-45 1 c-25 1 -54 -2 -65 -7z"/>
<path d="M3893 6315 c0 -44 2 -61 4 -37 2 23 2 59 0 80 -2 20 -4 1 -4 -43z"/>
<path d="M6153 6383 c9 -2 25 -2 35 0 9 3 1 5 -18 5 -19 0 -27 -2 -17 -5z"/>
<path d="M5945 6369 c-4 -6 -5 -12 -2 -15 2 -3 7 2 10 11 7 17 1 20 -8 4z"/>
<path d="M6228 6313 c7 -3 16 -2 19 1 4 3 -2 6 -13 5 -11 0 -14 -3 -6 -6z"/>
<path d="M4276 6276 c2 -16 4 -32 4 -37 0 -24 28 -5 34 22 8 42 8 49 -4 49 -5
0 -10 -7 -10 -15 0 -18 -17 -20 -23 -2 -2 6 -3 -1 -1 -17z"/>
<path d="M5898 6303 c7 -3 16 -2 19 1 4 3 -2 6 -13 5 -11 0 -14 -3 -6 -6z"/>
<path d="M6250 6285 c0 -11 11 -15 40 -15 29 0 40 4 40 15 0 11 -11 15 -40 15
-29 0 -40 -4 -40 -15z"/>
<path d="M4475 6280 c-4 -6 -1 -18 6 -26 10 -13 10 -17 -2 -25 -10 -6 -8 -9
12 -9 20 0 25 5 25 23 -1 20 -18 47 -30 47 -3 0 -8 -5 -11 -10z"/>
<path d="M6380 6270 c0 -5 7 -10 15 -10 8 0 15 5 15 10 0 6 -7 10 -15 10 -8 0
-15 -4 -15 -10z"/>
<path d="M4545 6245 c0 -15 7 -27 16 -30 23 -8 13 -41 -14 -50 -21 -7 -21 -7
-2 -12 10 -3 21 0 23 6 2 6 12 11 23 11 22 0 25 13 5 29 -7 6 -16 25 -20 41
-7 36 -31 40 -31 5z"/>
<path d="M4441 6244 c0 -11 3 -14 6 -6 3 7 2 16 -1 19 -3 4 -6 -2 -5 -13z"/>
<path d="M4704 6245 c-18 -14 -18 -14 9 -15 15 0 27 4 27 9 0 18 -17 20 -36 6z"/>
<path d="M3413 6243 c9 -2 23 -2 30 0 6 3 -1 5 -18 5 -16 0 -22 -2 -12 -5z"/>
<path d="M6075 6240 c-3 -5 -1 -10 4 -10 6 0 11 5 11 10 0 6 -2 10 -4 10 -3 0
-8 -4 -11 -10z"/>
<path d="M4330 6230 c0 -6 7 -10 15 -10 8 0 15 2 15 4 0 2 -7 6 -15 10 -8 3
-15 1 -15 -4z"/>
<path d="M3440 6223 c8 -3 17 -9 20 -13 8 -11 70 -23 70 -13 0 9 -71 34 -92
32 -8 0 -7 -3 2 -6z"/>
<path d="M3645 6220 c17 -4 24 -8 18 -9 -7 0 -13 -5 -13 -11 0 -5 11 -9 24 -8
17 2 22 7 18 20 -3 13 -14 18 -41 17 l-36 -1 30 -8z"/>
<path d="M3858 6223 c7 -3 16 -2 19 1 4 3 -2 6 -13 5 -11 0 -14 -3 -6 -6z"/>
<path d="M3923 6223 c9 -2 23 -2 30 0 6 3 -1 5 -18 5 -16 0 -22 -2 -12 -5z"/>
<path d="M4615 6220 c3 -5 15 -10 26 -10 10 0 19 5 19 10 0 6 -12 10 -26 10
-14 0 -23 -4 -19 -10z"/>
<path d="M4406 6194 c-17 -12 -17 -14 -4 -14 9 0 20 5 23 11 11 17 2 18 -19 3z"/>
<path d="M3870 6190 c0 -5 11 -10 25 -10 14 0 25 5 25 10 0 6 -11 10 -25 10
-14 0 -25 -4 -25 -10z"/>
<path d="M3950 6190 c0 -5 11 -10 25 -10 14 0 25 5 25 10 0 6 -11 10 -25 10
-14 0 -25 -4 -25 -10z"/>
<path d="M4469 6170 c-19 -12 -6 -22 25 -18 25 3 25 4 8 15 -11 6 -24 8 -33 3z"/>
<path d="M3713 6153 c9 -2 23 -2 30 0 6 3 -1 5 -18 5 -16 0 -22 -2 -12 -5z"/>
<path d="M4338 6153 c7 -3 16 -2 19 1 4 3 -2 6 -13 5 -11 0 -14 -3 -6 -6z"/>
<path d="M3543 6115 c2 -28 6 -40 17 -40 8 0 16 8 18 18 2 10 -3 17 -12 17 -8
0 -17 10 -19 23 -3 12 -4 4 -4 -18z"/>
<path d="M3570 6139 c0 -5 5 -7 10 -4 6 3 10 8 10 11 0 2 -4 4 -10 4 -5 0 -10
-5 -10 -11z"/>
<path d="M4593 6110 c0 -37 2 -40 28 -40 25 0 29 4 29 30 0 19 -7 33 -19 40
-32 17 -38 12 -38 -30z"/>
<path d="M4703 6124 c-33 -31 -30 -54 7 -54 31 0 36 11 22 55 -7 20 -7 20 -29
-1z"/>
<path d="M5013 6110 c0 -25 2 -35 4 -22 2 12 2 32 0 45 -2 12 -4 2 -4 -23z"/>
<path d="M5163 6110 c0 -25 2 -35 4 -22 2 12 2 32 0 45 -2 12 -4 2 -4 -23z"/>
<path d="M5181 6108 c1 -24 4 -33 6 -20 2 12 8 22 13 22 5 0 11 -10 13 -22 2
-13 5 -4 6 20 1 36 -2 42 -19 42 -17 0 -20 -6 -19 -42z"/>
<path d="M4572 6115 c0 -16 2 -22 5 -12 2 9 2 23 0 30 -3 6 -5 -1 -5 -18z"/>
<path d="M5530 6110 c0 -5 18 -10 39 -10 22 0 43 5 46 10 4 6 -12 10 -39 10
-25 0 -46 -4 -46 -10z"/>
<path d="M5388 6103 c12 -2 32 -2 45 0 12 2 2 4 -23 4 -25 0 -35 -2 -22 -4z"/>
<path d="M6987 6103 c-14 -13 -6 -33 13 -33 12 0 20 -7 20 -17 0 -10 5 -25 11
-33 7 -11 9 -6 7 22 -1 20 1 40 5 44 14 15 6 24 -21 24 -16 0 -32 -3 -35 -7z"/>
<path d="M4813 6058 c1 -9 -19 -14 -73 -16 -72 -3 -89 -11 -90 -39 0 -10 24
-13 85 -13 71 0 83 2 79 15 -5 13 7 15 75 15 80 0 81 0 81 25 0 25 -1 25 -80
25 -59 0 -79 -3 -77 -12z"/>
<path d="M4136 6039 c2 -4 -8 -17 -23 -28 -32 -23 -13 -29 30 -8 31 14 37 47
8 44 -11 0 -18 -4 -15 -8z"/>
<path d="M7050 5434 c0 -8 5 -12 10 -9 6 4 8 11 5 16 -9 14 -15 11 -15 -7z"/>
<path d="M3845 2720 c-3 -5 -1 -10 4 -10 6 0 11 5 11 10 0 6 -2 10 -4 10 -3 0
-8 -4 -11 -10z"/>
<path d="M4360 2606 c0 -9 5 -16 10 -16 6 0 10 4 10 9 0 6 -4 13 -10 16 -5 3
-10 -1 -10 -9z"/>
<path d="M1380 2595 c0 -9 5 -15 11 -13 6 2 11 8 11 13 0 5 -5 11 -11 13 -6 2
-11 -4 -11 -13z"/>
<path d="M1460 2595 c0 -8 5 -15 10 -15 6 0 10 7 10 15 0 8 -4 15 -10 15 -5 0
-10 -7 -10 -15z"/>
<path d="M1155 2530 c3 -5 12 -7 20 -3 21 7 19 13 -6 13 -11 0 -18 -4 -14 -10z"/>
<path d="M1206 2525 c4 -8 8 -15 10 -15 2 0 4 7 4 15 0 8 -4 15 -10 15 -5 0
-7 -7 -4 -15z"/>
<path d="M2100 2504 c0 -8 10 -14 26 -14 28 0 25 15 -6 23 -13 3 -20 0 -20 -9z"/>
<path d="M1020 2506 c0 -8 51 -13 56 -5 3 5 -9 9 -25 9 -17 0 -31 -2 -31 -4z"/>
<path d="M1435 2450 c3 -5 10 -10 16 -10 5 0 9 5 9 10 0 6 -7 10 -16 10 -8 0
-12 -4 -9 -10z"/>
<path d="M1365 2420 c-3 -5 -1 -10 4 -10 6 0 11 5 11 10 0 6 -2 10 -4 10 -3 0
-8 -4 -11 -10z"/>
<path d="M855 2380 c-3 -6 1 -13 10 -16 19 -8 30 0 20 15 -8 14 -22 14 -30 1z"/>
<path d="M400 2280 c0 -5 5 -10 10 -10 6 0 10 5 10 10 0 6 -4 10 -10 10 -5 0
-10 -4 -10 -10z"/>
<path d="M427 2263 c-4 -3 -7 -16 -7 -28 0 -21 -5 -22 -76 -23 -46 0 -80 -5
-84 -12 -6 -10 -50 -9 -143 3 -15 3 -30 0 -33 -5 -3 -5 -23 -6 -45 -4 l-39 5
0 -55 c0 -30 5 -55 10 -55 6 -1 14 -2 19 -3 5 0 13 -4 17 -8 14 -15 24 -8 24
17 0 37 18 31 23 -7 4 -31 4 -31 5 6 l2 39 56 -6 c39 -4 63 -2 78 8 16 10 33
11 66 5 62 -13 131 -12 169 1 37 13 41 29 6 29 -34 0 -32 20 3 22 15 1 34 2
42 4 8 1 21 2 28 3 6 1 12 10 12 21 0 11 5 20 10 20 6 0 10 -5 10 -11 0 -6 9
-8 20 -4 14 5 20 2 20 -10 0 -17 24 -30 39 -21 21 13 -1 44 -37 52 -21 4 -44
9 -52 10 -32 8 -94 14 -82 8 6 -3 12 -19 12 -35 0 -24 -4 -29 -24 -29 -29 0
-44 19 -26 30 7 4 10 15 7 24 -7 17 -19 21 -30 9z"/>
<path d="M754 2235 c-7 -17 4 -37 17 -30 12 8 12 45 -1 45 -6 0 -13 -7 -16
-15z"/>
<path d="M904 2187 c-20 -23 -20 -26 3 -66 2 -2 9 2 18 9 8 7 13 16 10 20 -3
5 5 16 17 24 17 12 24 13 30 3 4 -6 8 -7 8 -1 0 37 -57 45 -86 11z"/>
<path d="M1075 2200 c-16 -27 42 -42 75 -20 13 9 13 11 0 20 -20 13 -67 13
-75 0z"/>
<path d="M577 2170 c-5 -21 0 -30 19 -30 16 0 14 38 -2 44 -7 3 -14 -4 -17
-14z"/>
<path d="M757 2150 c-7 -28 1 -46 14 -33 6 6 6 19 1 33 l-9 24 -6 -24z"/>
<path d="M4562 2085 c0 -16 2 -22 5 -12 2 9 2 23 0 30 -3 6 -5 -1 -5 -18z"/>
<path d="M203 2038 c2 -7 12 -13 22 -13 10 0 20 6 23 13 2 7 -6 12 -23 12 -17
0 -25 -5 -22 -12z"/>
<path d="M265 2030 c4 -6 11 -8 16 -5 14 9 11 15 -7 15 -8 0 -12 -5 -9 -10z"/>
<path d="M980 1960 c0 -5 7 -10 15 -10 8 0 14 -5 13 -12 -2 -6 4 -13 13 -15
13 -3 17 3 15 21 -1 21 -6 26 -28 26 -16 0 -28 -4 -28 -10z"/>
<path d="M897 1937 c-3 -8 -1 -20 4 -28 11 -19 34 3 26 25 -8 20 -23 21 -30 3z"/>
<path d="M672 1904 c4 -21 22 -23 26 -1 2 10 -3 17 -13 17 -10 0 -15 -6 -13
-16z"/>
<path d="M732 1893 c3 -30 32 -43 52 -23 8 9 5 16 -13 31 -32 26 -43 24 -39
-8z"/>
<path d="M1030 1911 c-20 -3 -30 -9 -24 -13 17 -11 85 -6 81 6 -4 13 -15 14
-57 7z"/>
<path d="M1305 1660 c-3 -5 1 -10 10 -10 9 0 13 5 10 10 -3 6 -8 10 -10 10 -2
0 -7 -4 -10 -10z"/>
<path d="M1362 1649 c5 -17 48 -25 48 -10 0 6 -4 11 -9 11 -5 0 -17 3 -27 7
-12 4 -15 2 -12 -8z"/>
<path d="M288 1613 c7 -3 16 -2 19 1 4 3 -2 6 -13 5 -11 0 -14 -3 -6 -6z"/>
<path d="M2500 1544 c-8 -3 -26 -23 -38 -45 -23 -40 -23 -42 -7 -85 9 -24 21
-44 25 -44 5 0 18 -9 29 -21 15 -17 27 -20 58 -15 42 6 102 34 128 60 22 21
43 20 96 -6 24 -12 60 -22 80 -21 29 0 39 -4 48 -23 8 -19 19 -24 48 -25 21 0
49 -2 63 -4 56 -6 47 25 -19 62 -25 15 -48 30 -51 33 -31 34 -138 80 -186 80
-13 0 -27 6 -30 14 -3 8 -18 14 -32 14 -15 0 -47 7 -72 16 -42 15 -105 19
-140 10z"/>
<path d="M295 1430 c3 -5 8 -10 11 -10 2 0 4 5 4 10 0 6 -5 10 -11 10 -5 0 -7
-4 -4 -10z"/>
<path d="M7086 1408 c-13 -43 -13 -58 0 -58 9 0 14 12 14 35 0 35 -7 46 -14
23z"/>
<path d="M6890 1396 c0 -9 8 -12 26 -8 19 3 22 7 12 13 -20 13 -38 11 -38 -5z"/>
<path d="M6706 1366 c-22 -34 -21 -36 15 -36 28 0 30 2 18 17 -12 15 -12 16 6
8 43 -18 112 -28 148 -21 41 8 51 26 14 26 -13 0 -27 3 -31 7 -3 4 -12 8 -19
9 -7 2 -22 5 -35 8 -13 3 -34 0 -47 -6 -18 -8 -28 -8 -38 1 -12 9 -18 6 -31
-13z"/>
<path d="M6582 1350 c-10 -17 -10 -21 3 -26 8 -4 27 -3 43 1 l27 7 -24 19
c-29 24 -33 24 -49 -1z"/>
<path d="M970 1349 c0 -5 5 -7 10 -4 6 3 10 8 10 11 0 2 -4 4 -10 4 -5 0 -10
-5 -10 -11z"/>
<path d="M1148 1353 c6 -2 18 -2 25 0 6 3 1 5 -13 5 -14 0 -19 -2 -12 -5z"/>
<path d="M5160 1314 c0 -22 3 -24 23 -19 46 15 48 45 1 45 -19 0 -24 -5 -24
-26z"/>
<path d="M6994 1329 c-8 -14 11 -33 25 -25 6 4 11 11 11 16 0 13 -29 20 -36 9z"/>
<path d="M5105 1320 c-3 -5 1 -10 9 -10 9 0 16 5 16 10 0 6 -4 10 -9 10 -6 0
-13 -4 -16 -10z"/>
<path d="M6730 1305 c0 -16 16 -20 24 -6 3 5 -1 11 -9 15 -9 3 -15 0 -15 -9z"/>
<path d="M6572 1298 c7 -19 43 -21 58 -3 11 13 8 15 -25 15 -25 0 -35 -4 -33
-12z"/>
<path d="M5000 1290 c0 -5 6 -10 14 -10 8 0 18 5 21 10 3 6 -3 10 -14 10 -12
0 -21 -4 -21 -10z"/>
<path d="M1223 1270 c-21 -24 -83 -28 -83 -5 0 12 -13 15 -61 15 l-60 0 3 -47
c3 -45 5 -48 32 -51 21 -3 34 3 46 19 15 18 29 22 90 25 40 2 75 5 77 8 7 7
-9 56 -18 56 -5 0 -17 -9 -26 -20z"/>
<path d="M6168 1239 c2 -22 9 -39 14 -39 6 0 8 6 5 14 -3 8 1 20 9 27 19 16
13 34 -12 35 -16 1 -19 -5 -16 -37z"/>
<path d="M6720 1270 c0 -5 9 -10 20 -10 11 0 20 5 20 10 0 6 -9 10 -20 10 -11
0 -20 -4 -20 -10z"/>
<path d="M6960 1271 c0 -5 -9 -11 -20 -14 -26 -7 -25 -21 3 -40 22 -14 22 -14
22 24 0 22 -1 39 -2 39 -2 0 -3 -4 -3 -9z"/>
<path d="M5845 1249 c-12 -19 5 -23 22 -6 16 16 16 17 1 17 -9 0 -20 -5 -23
-11z"/>
<path d="M7051 1246 c-10 -12 -8 -17 9 -26 26 -14 46 0 37 24 -8 20 -31 21
-46 2z"/>
<path d="M1445 1241 c-3 -5 -1 -12 5 -16 5 -3 10 1 10 9 0 18 -6 21 -15 7z"/>
<path d="M6972 1238 c7 -19 38 -22 38 -4 0 10 -9 16 -21 16 -12 0 -19 -5 -17
-12z"/>
<path d="M6810 1184 c0 -14 3 -14 15 -4 8 7 15 14 15 16 0 2 -7 4 -15 4 -8 0
-15 -7 -15 -16z"/>
<path d="M6658 1163 c7 -3 16 -2 19 1 4 3 -2 6 -13 5 -11 0 -14 -3 -6 -6z"/>
<path d="M1898 1123 c6 -2 18 -2 25 0 6 3 1 5 -13 5 -14 0 -19 -2 -12 -5z"/>
<path d="M4323 1022 c-6 -4 -13 -18 -16 -32 l-4 -25 -8 23 c-5 14 -13 21 -21
18 -8 -3 -25 -1 -38 4 -27 10 -66 -11 -66 -36 0 -8 -6 -14 -13 -14 -8 0 -22
-9 -32 -20 -10 -11 -24 -20 -32 -20 -22 0 -14 -26 13 -40 l25 -14 -26 -14
c-18 -9 -25 -20 -23 -35 2 -14 -3 -23 -16 -25 -11 -2 -16 0 -12 6 3 6 2 13 -4
17 -5 3 -10 1 -10 -4 0 -6 -11 -11 -25 -11 -55 0 -14 -35 48 -42 41 -5 53 -2
77 18 32 27 55 32 46 9 -7 -19 27 -24 79 -11 18 5 25 2 25 -8 0 -22 19 -30 36
-15 12 10 20 8 44 -9 16 -12 40 -22 54 -22 14 0 29 -6 33 -14 4 -7 15 -16 23
-19 9 -3 4 -6 -12 -6 -34 -1 -59 9 -52 20 9 16 -6 10 -27 -10 -12 -11 -18 -24
-14 -30 9 -15 -19 -41 -44 -41 -12 0 -30 -9 -41 -20 -11 -11 -34 -23 -50 -27
-40 -7 -38 -19 3 -27 48 -9 77 -40 77 -81 0 -53 19 -86 45 -79 24 6 55 -18 55
-42 0 -8 9 -14 21 -14 15 0 19 5 15 15 -3 9 0 15 9 15 8 0 15 -8 15 -17 1 -17
1 -17 11 0 12 21 71 17 95 -7 18 -18 30 -20 39 -6 7 12 36 1 53 -19 11 -14 15
-13 36 12 l23 29 7 -32 c4 -23 10 -31 21 -26 9 3 21 -4 31 -19 18 -28 39 -32
48 -10 8 23 -4 44 -22 39 -13 -5 -13 -2 2 10 11 9 29 16 40 16 19 0 21 -5 18
-44 -3 -39 -1 -44 20 -47 12 -2 41 -1 63 2 22 3 32 7 23 8 -22 1 -24 31 -2 31
8 0 24 -5 35 -11 16 -8 23 -7 32 5 8 10 35 18 73 22 58 6 62 5 69 -16 6 -20 9
-21 17 -7 10 20 59 23 90 6 24 -13 68 5 68 29 0 8 10 23 22 33 16 15 24 16 35
7 20 -16 33 1 35 46 1 32 6 39 36 52 37 15 127 20 104 5 -8 -5 -27 -7 -43 -6
-17 2 -27 0 -24 -3 3 -3 29 -7 58 -8 28 -2 63 -7 77 -13 24 -10 24 -10 -7 -10
-25 -1 -33 -5 -32 -18 0 -11 3 -13 6 -5 7 19 41 14 53 -8 22 -42 35 -22 34 50
-1 39 -5 74 -8 77 -4 4 3 12 16 19 12 7 27 26 33 43 12 36 28 44 33 17 2 -11
-4 -26 -14 -33 -10 -7 -13 -13 -7 -13 23 0 43 13 43 26 0 10 9 14 27 12 25 -3
27 0 31 39 3 38 1 44 -22 53 -16 6 -26 17 -26 29 0 25 -17 31 -53 18 -23 -7
-32 -6 -45 7 -11 10 -12 16 -4 16 7 0 12 5 12 10 0 6 -7 6 -18 -1 -14 -9 -25
-8 -48 4 -16 8 -45 18 -64 22 -19 4 -39 11 -45 15 -5 5 -46 13 -90 18 -73 9
-81 8 -95 -9 -11 -13 -19 -16 -30 -9 -20 13 -26 12 -44 -6 -10 -9 -24 -13 -36
-9 -21 7 -28 25 -10 25 7 0 7 6 0 20 -8 16 -15 18 -34 10 -18 -7 -26 -5 -30 6
-4 10 -13 13 -31 8 -20 -5 -26 -1 -35 20 -9 25 -43 38 -38 15 4 -18 -52 -30
-105 -24 -57 7 -79 14 -72 25 3 4 -4 10 -15 13 -11 3 -23 1 -26 -4 -3 -5 0 -9
7 -9 29 0 -4 -13 -40 -15 -22 -2 -55 -6 -73 -10 -24 -4 -29 -3 -18 4 12 8 10
15 -15 43 -17 18 -36 37 -44 44 -8 6 -11 16 -7 22 4 7 2 12 -3 12 -6 0 -11 -5
-11 -11 0 -8 -4 -8 -14 0 -21 18 -75 31 -81 20 -4 -5 -22 -9 -41 -9 -19 0 -43
-6 -54 -12 -17 -11 -22 -9 -35 10 -9 12 -24 22 -34 22 -9 0 -22 5 -27 10 -14
14 -48 20 -61 12z m567 -194 c0 -4 -13 -9 -30 -9 -16 -1 -35 -2 -42 -3 -6 -1
-13 4 -15 10 -2 7 14 11 42 11 25 0 45 -4 45 -9z m-340 -133 c-14 -16 -40 -20
-40 -6 0 10 17 19 39 20 11 1 11 -2 1 -14z m880 -185 c0 -5 -5 -10 -11 -10 -5
0 -7 5 -4 10 3 6 8 10 11 10 2 0 4 -4 4 -10z m15 -60 c3 -5 1 -10 -4 -10 -6 0
-11 5 -11 10 0 6 2 10 4 10 3 0 8 -4 11 -10z m-260 -40 c3 -5 1 -10 -4 -10 -6
0 -11 5 -11 10 0 6 2 10 4 10 3 0 8 -4 11 -10z m-311 -26 c9 -23 3 -26 -28
-18 -25 6 -25 7 -9 20 24 18 30 17 37 -2z m66 -14 c0 -5 -9 -14 -20 -20 -15
-8 -20 -8 -20 3 0 8 3 17 7 20 10 10 33 8 33 -3z m27 -46 c-3 -3 -12 -4 -19
-1 -8 3 -5 6 6 6 11 1 17 -2 13 -5z"/>
<path d="M5775 750 c3 -5 17 -10 30 -10 13 0 27 5 30 10 4 6 -8 10 -30 10 -22
0 -34 -4 -30 -10z"/>
<path d="M6040 680 c0 -14 7 -20 21 -20 15 0 19 4 15 16 -3 9 -6 18 -6 20 0 2
-7 4 -15 4 -8 0 -15 -9 -15 -20z"/>
<path d="M5915 680 c3 -5 8 -10 11 -10 2 0 4 5 4 10 0 6 -5 10 -11 10 -5 0 -7
-4 -4 -10z"/>
<path d="M1777 620 c-4 -16 -1 -20 11 -18 19 4 23 29 6 35 -6 2 -14 -6 -17
-17z"/>
<path d="M6072 613 c-25 -9 4 -133 31 -133 12 0 13 52 0 69 -8 13 -10 22 -3
26 25 16 2 48 -28 38z"/>
<path d="M226 588 c-24 -14 -19 -44 12 -67 15 -12 32 -25 39 -31 20 -16 70
-12 77 7 4 9 2 21 -4 27 -5 5 -10 20 -10 33 0 13 -3 23 -7 23 -5 1 -27 4 -49
9 -24 4 -49 4 -58 -1z"/>
<path d="M6468 583 c7 -3 16 -2 19 1 4 3 -2 6 -13 5 -11 0 -14 -3 -6 -6z"/>
<path d="M6470 546 c0 -14 -12 -15 -90 -9 -78 5 -90 4 -96 -11 -3 -9 -15 -16
-26 -16 -11 0 -31 -9 -45 -20 -14 -11 -34 -20 -45 -20 -28 0 -38 -39 -28 -111
5 -34 6 -67 3 -72 -5 -8 29 -47 41 -47 10 0 54 -49 48 -54 -3 -3 -24 -6 -48
-6 -45 0 -56 -12 -43 -47 9 -25 40 -37 69 -28 13 4 22 1 26 -9 3 -9 12 -16 20
-16 8 0 14 -6 14 -13 0 -7 13 -25 28 -40 28 -27 30 -27 165 -27 92 0 144 4
157 13 17 10 22 9 30 -3 8 -13 10 -13 10 1 0 12 14 18 53 24 88 13 177 2 177
-21 0 -19 14 -18 31 2 10 13 24 15 62 10 27 -4 57 -12 67 -18 9 -6 25 -8 34
-5 13 5 16 24 16 122 0 122 1 120 -50 117 -8 0 -23 4 -33 10 -14 7 -23 6 -35
-6 -16 -14 -17 -10 -14 45 3 37 -1 65 -8 74 -17 21 -67 19 -79 -2 -13 -24 -29
-7 -33 37 -4 42 -14 51 -47 43 -19 -5 -23 -3 -19 9 8 19 -68 56 -84 40 -6 -6
-2 -15 13 -26 31 -21 20 -28 -27 -17 -21 5 -32 9 -23 10 9 1 16 7 16 15 0 8
-6 12 -14 9 -8 -3 -13 2 -13 13 0 25 -48 48 -67 33 -8 -7 -13 -8 -13 -1 0 5
-15 12 -32 14 -18 3 -41 8 -50 13 -13 5 -18 3 -18 -9z m320 -284 c0 -18 48
-42 82 -42 17 0 31 -24 21 -34 -4 -3 -21 -6 -40 -6 -21 0 -36 -6 -39 -15 -6
-16 -31 -19 -58 -9 -24 9 -19 26 5 19 16 -5 20 -3 17 6 -3 8 -13 14 -24 14
-27 0 -31 35 -5 42 12 3 21 13 21 24 0 11 5 19 10 19 6 0 10 -8 10 -18z m-140
-52 c0 -5 -4 -10 -10 -10 -5 0 -10 5 -10 10 0 6 5 10 10 10 6 0 10 -4 10 -10z
m0 -45 c0 -8 -4 -15 -9 -15 -13 0 -22 16 -14 24 11 11 23 6 23 -9z"/>
<path d="M87 528 c-8 -24 7 -48 23 -38 13 8 13 11 1 19 -7 5 -10 14 -7 20 4 6
3 11 -2 11 -6 0 -12 -6 -15 -12z"/>
<path d="M1 514 c0 -11 3 -14 6 -6 3 7 2 16 -1 19 -3 4 -6 -2 -5 -13z"/>
<path d="M4160 500 c0 -5 5 -10 11 -10 5 0 7 5 4 10 -3 6 -8 10 -11 10 -2 0
-4 -4 -4 -10z"/>
<path d="M4182 482 c-23 -3 -23 -4 -6 -23 22 -24 30 -24 37 1 6 23 0 27 -31
22z"/>
<path d="M2 460 c0 -14 2 -19 5 -12 2 6 2 18 0 25 -3 6 -5 1 -5 -13z"/>
<path d="M4236 458 c-7 -29 3 -38 32 -27 27 10 28 25 3 39 -27 14 -28 13 -35
-12z"/>
<path d="M4150 430 c-11 -20 -10 -22 4 -17 17 7 22 -8 6 -18 -10 -6 -4 -26 22
-72 18 -30 20 -31 46 -17 15 8 32 14 39 14 23 0 35 38 21 62 -10 19 -22 23
-58 23 -37 0 -46 4 -56 24 l-12 23 -12 -22z m60 -44 c0 -2 -7 -9 -15 -16 -12
-10 -15 -10 -15 4 0 9 7 16 15 16 8 0 15 -2 15 -4z"/>
<path d="M6885 410 c-3 -5 -1 -10 4 -10 6 0 11 5 11 10 0 6 -2 10 -4 10 -3 0
-8 -4 -11 -10z"/>
<path d="M307 384 c-3 -4 -20 -7 -38 -8 -31 -1 -32 -3 -36 -55 -5 -70 2 -97
27 -104 14 -3 20 -13 20 -31 0 -24 30 -66 48 -66 4 0 17 15 30 34 16 24 21 41
16 60 -7 29 4 33 36 14 10 -7 23 -9 27 -5 4 5 1 12 -6 16 -9 6 0 11 28 16 25
4 41 12 41 21 0 8 8 14 18 14 21 1 67 38 58 47 -4 4 -11 1 -15 -6 -7 -11 -11
-9 -21 8 -10 20 -17 22 -62 16 -51 -7 -138 9 -138 26 0 10 -24 12 -33 3z"/>
<path d="M4112 354 c2 -20 9 -30 23 -32 15 -2 16 -1 7 6 -8 5 -12 17 -10 27 2
10 -3 20 -10 23 -10 3 -13 -4 -10 -24z"/>
<path d="M4570 305 c-10 -12 -9 -16 5 -21 19 -8 40 9 31 25 -10 15 -21 14 -36
-4z"/>
<path d="M6990 313 c0 -6 -3 -18 -6 -27 -3 -9 -1 -16 5 -16 17 0 25 30 12 43
-8 8 -11 8 -11 0z"/>
<path d="M3440 291 c-14 -27 -13 -28 15 -27 14 1 24 4 23 8 -2 4 6 14 17 22
19 15 19 15 -12 16 -22 0 -36 -6 -43 -19z"/>
<path d="M4350 254 c0 -3 7 -12 15 -21 20 -19 32 -9 15 12 -12 15 -30 20 -30
9z"/>
<path d="M190 30 c-13 -9 -13 -10 0 -10 8 0 22 5 30 10 13 9 13 10 0 10 -8 0
-22 -5 -30 -10z"/>
<path d="M5148 3 c7 -3 16 -2 19 1 4 3 -2 6 -13 5 -11 0 -14 -3 -6 -6z"/>
</g>
</svg>
